<?xml version="1.0" standalone="no"?>
<!DOCTYPE svg PUBLIC "-//W3C//DTD SVG 20010904//EN"
 "http://www.w3.org/TR/2001/REC-SVG-20010904/DTD/svg10.dtd">
<svg version="1.0" xmlns="http://www.w3.org/2000/svg"
 width="1920.000000pt" height="1080.000000pt" viewBox="0 0 1920.000000 1080.000000"
 preserveAspectRatio="xMidYMid meet">
<metadata>
Created by potrace 1.16, written by Peter Selinger 2001-2019
</metadata>
<g transform="translate(0.000000,1080.000000) scale(0.100000,-0.100000)"
fill="#000000" stroke="none">
<path d="M12003 10784 c-3 -8 2 -22 11 -30 9 -8 11 -9 6 -2 -13 16 -13 38 1
38 5 0 7 -4 4 -10 -6 -9 0 -12 35 -14 8 -1 14 -4 13 -9 -10 -28 -14 -53 -14
-75 1 -12 -6 -25 -14 -28 -8 -4 -12 -10 -9 -16 3 -5 -2 -16 -12 -24 -11 -9
-13 -13 -7 -9 7 3 22 1 34 -6 16 -8 23 -8 29 0 3 7 23 14 44 18 32 5 36 3 30
-12 -5 -12 -15 -16 -35 -13 -24 4 -29 1 -29 -15 0 -15 3 -17 14 -8 10 8 20 8
40 -3 26 -13 25 -13 -21 -11 -29 1 -47 7 -46 13 2 7 -4 9 -14 5 -11 -4 -14 -3
-9 5 5 8 2 10 -10 5 -14 -5 -13 -8 7 -18 17 -10 19 -14 8 -17 -9 -3 -8 -4 3
-3 9 2 19 -4 22 -12 5 -13 9 -13 23 -2 13 11 17 11 20 2 3 -7 11 -13 18 -13 7
0 15 -6 18 -14 4 -9 15 -12 34 -8 15 2 25 1 21 -3 -4 -5 -3 -15 4 -22 9 -11 9
-16 -2 -23 -7 -4 -10 -15 -7 -25 4 -9 3 -14 -1 -11 -4 3 -14 -5 -21 -17 -11
-18 -11 -20 0 -9 7 6 20 12 28 12 10 0 7 -6 -9 -17 -14 -10 -29 -16 -35 -15
-5 2 -5 -2 2 -9 17 -17 65 29 53 51 -10 19 3 45 19 36 6 -4 11 -2 11 5 0 7 7
4 16 -7 11 -13 14 -14 11 -3 -3 9 1 16 8 16 10 0 11 -5 4 -19 -13 -24 6 -25
20 0 6 9 10 13 11 7 0 -22 -18 -37 -38 -31 -23 8 -34 -4 -22 -23 4 -8 17 -12
29 -8 11 3 25 -1 31 -8 8 -10 6 -13 -7 -11 -9 0 -19 -7 -21 -16 -2 -10 1 -18
7 -18 6 0 7 8 4 17 -5 14 -1 13 24 -5 l31 -22 11 30 c5 17 16 29 23 28 7 -2
12 3 10 11 -3 12 0 12 11 2 16 -12 17 -27 4 -48 -5 -8 -4 -13 3 -13 5 0 9 -13
8 -30 -1 -16 -6 -30 -11 -30 -5 0 -4 -7 3 -15 7 -8 8 -15 2 -15 -5 0 -15 6
-21 14 -9 11 -8 17 4 29 8 9 11 18 6 21 -5 4 -7 20 -4 38 4 28 3 30 -11 19
-11 -9 -14 -25 -12 -52 3 -27 0 -39 -9 -39 -14 0 -27 -25 -18 -34 4 -3 12 -1
20 5 14 12 15 9 17 -31 1 -19 6 -25 21 -23 20 1 20 1 1 -12 -17 -13 -21 -12
-31 2 -8 11 -14 13 -19 5 -4 -7 -3 -12 2 -12 6 0 13 -11 16 -25 4 -14 14 -25
22 -25 13 0 14 3 5 14 -9 11 -9 16 0 22 7 4 9 3 5 -4 -7 -12 29 -26 44 -17 14
8 13 3 -6 -33 -8 -18 -22 -36 -30 -40 -13 -8 -13 -10 0 -22 15 -11 15 -14 -1
-27 -16 -13 -16 -13 5 -3 19 9 21 14 11 26 -9 11 -9 17 1 29 21 25 26 17 23
-32 -2 -27 -4 -56 -4 -65 0 -11 -8 -18 -19 -18 -23 0 -35 -16 -19 -26 6 -3 15
-1 19 6 4 7 13 9 19 6 8 -5 7 -12 -4 -22 -17 -17 -20 -34 -6 -34 19 0 41 12
36 20 -8 13 15 24 26 13 6 -6 4 -15 -6 -23 -17 -14 -20 -30 -4 -30 5 0 7 5 4
10 -3 6 -2 10 3 10 6 0 12 -7 16 -15 3 -9 0 -15 -10 -15 -10 0 -12 -5 -7 -12
4 -7 8 -20 10 -28 1 -8 7 -16 12 -18 15 -5 14 -20 -1 -19 -40 1 -56 -5 -61
-24 -3 -12 -3 -18 0 -15 7 6 62 -61 64 -78 1 -6 1 -17 0 -23 -1 -7 3 -13 8
-13 6 0 8 -8 4 -17 -3 -10 -3 -15 2 -11 4 4 14 3 22 -3 9 -9 13 -8 13 0 0 6 7
11 16 11 14 0 14 -2 0 -15 -8 -8 -22 -12 -30 -9 -9 4 -18 0 -22 -10 -5 -12 -9
-13 -19 -3 -7 6 -11 17 -8 23 2 7 1 14 -4 17 -4 3 -9 -10 -9 -28 -1 -23 4 -35
15 -38 9 -3 25 -8 36 -12 16 -5 17 -5 5 4 -11 8 -12 11 -2 11 7 0 11 4 7 10
-3 5 7 3 22 -5 15 -8 33 -15 40 -15 6 0 9 -9 6 -20 -6 -22 8 -26 37 -10 13 7
21 7 25 0 3 -5 13 -10 21 -10 10 0 12 5 8 13 -5 8 -3 8 9 -2 9 -7 14 -17 11
-22 -3 -5 2 -9 11 -9 8 0 18 -7 21 -15 4 -8 10 -15 15 -15 5 0 9 7 9 15 0 8 4
15 9 15 5 0 11 -7 15 -15 6 -17 26 -21 26 -5 0 5 9 21 21 34 17 20 26 23 48
16 15 -4 35 -3 44 2 14 7 17 4 17 -17 0 -18 5 -25 19 -25 10 0 23 -6 28 -12
14 -18 -12 -78 -35 -78 -10 0 -13 -3 -6 -8 6 -4 15 -14 20 -23 11 -20 54 -8
54 15 0 10 6 13 16 9 12 -4 13 -7 3 -14 -26 -16 0 -20 30 -5 39 21 40 20 35
-8 -5 -27 9 -41 29 -29 23 14 47 13 47 -3 0 -8 -4 -13 -9 -10 -10 6 -25 -24
-16 -32 3 -3 5 0 5 6 0 6 9 10 19 9 13 -1 21 -11 25 -29 7 -34 31 -36 80 -7
33 19 36 19 36 4 0 -17 11 -17 53 0 12 5 17 3 17 -8 0 -16 -24 -40 -32 -32 -3
3 -11 -1 -18 -10 -7 -8 -19 -15 -27 -15 -8 0 -13 -6 -10 -12 6 -20 58 -9 94
18 37 28 45 30 37 9 -4 -8 -1 -15 6 -15 7 0 18 -7 25 -16 10 -14 17 -15 48 -5
20 7 38 20 40 29 4 15 5 15 6 0 0 -10 5 -18 10 -18 5 0 11 -10 13 -22 3 -20 8
-23 40 -20 29 2 40 -2 50 -18 16 -25 36 -25 169 -1 122 23 139 28 139 47 0 8
4 14 9 14 5 0 7 8 4 18 -2 11 2 35 11 55 15 36 14 37 -14 57 -30 22 -45 26
-35 10 3 -5 0 -10 -8 -10 -7 0 -14 6 -14 13 -1 6 -4 42 -7 80 -4 51 -3 67 7
67 7 0 18 -5 24 -11 8 -8 17 -1 32 29 11 22 18 42 14 45 -3 4 11 29 31 57 20
27 36 58 36 68 0 25 73 135 104 155 14 9 46 18 72 19 43 1 51 6 102 60 62 65
90 73 116 33 21 -31 65 -34 73 -5 3 11 14 20 25 20 10 0 16 4 13 10 -3 5 6 21
21 35 15 14 23 25 18 26 -5 0 1 4 14 10 14 5 20 13 16 21 -5 8 -2 9 9 5 12 -5
17 -1 17 13 0 12 11 22 33 28 49 15 117 21 117 10 0 -5 -5 -6 -12 -2 -7 5 -8
3 -3 -6 6 -10 11 -9 22 5 11 17 13 17 13 2 0 -9 11 -19 25 -23 24 -6 36 -34
14 -34 -5 0 -7 5 -4 10 3 6 1 10 -4 10 -6 0 -11 -7 -11 -15 0 -8 8 -15 17 -15
15 0 15 -1 -2 -14 -13 -9 -16 -19 -10 -32 13 -33 14 -86 1 -81 -7 3 -18 -3
-24 -14 -10 -15 -9 -17 3 -13 11 5 13 2 9 -10 -3 -9 -12 -16 -20 -16 -13 0
-18 -12 -15 -33 1 -4 -6 -10 -15 -14 -13 -5 -13 -8 -2 -15 9 -7 8 -8 -7 -5
-11 2 -19 9 -17 16 1 7 -11 3 -27 -10 -16 -13 -30 -30 -30 -36 -1 -7 -7 -13
-13 -13 -9 0 -8 -4 2 -11 12 -9 12 -10 -3 -5 -10 3 -21 6 -23 6 -3 0 -2 5 1
10 5 9 -33 16 -59 11 -5 -1 -5 4 1 11 5 7 7 24 3 38 -4 17 -8 21 -14 12 -4 -6
-4 -17 0 -24 5 -7 3 -8 -5 -4 -7 5 -10 14 -7 22 3 8 1 14 -4 14 -6 0 -10 -7
-10 -15 0 -21 -20 -19 -21 3 0 14 -2 14 -8 -3 -5 -11 -7 -23 -4 -27 6 -12 -11
-10 -23 2 -6 6 -17 8 -26 5 -11 -5 -13 -16 -8 -50 6 -42 5 -49 -11 -47 -4 1
-5 -6 -3 -16 6 -27 -29 -87 -49 -84 -10 2 -16 -3 -15 -10 2 -7 -3 -12 -10 -10
-8 1 -11 -2 -8 -7 4 -5 -7 -25 -24 -44 -16 -19 -30 -37 -30 -41 0 -10 39 -7
60 4 14 7 23 6 34 -6 16 -15 17 -15 20 8 0 7 10 14 21 15 18 3 18 2 2 -5 -10
-4 -18 -12 -18 -17 0 -17 45 -23 69 -8 12 7 23 11 23 8 1 -3 2 -9 3 -13 2 -16
34 -41 59 -47 19 -5 24 -13 24 -33 -1 -15 -6 -30 -12 -34 -5 -4 0 -8 13 -8 14
0 22 -6 22 -17 -1 -21 -24 -55 -36 -53 -5 1 -10 -3 -12 -10 -2 -6 0 -9 5 -8 4
2 9 -1 11 -7 1 -5 -7 -11 -18 -11 -11 -1 -27 -7 -37 -15 -11 -9 -14 -10 -9 -2
5 9 2 11 -8 7 -9 -3 -16 -14 -16 -24 0 -11 -5 -22 -10 -25 -6 -4 -7 -23 -4
-46 5 -32 4 -39 -10 -39 -10 0 -16 9 -17 23 -1 17 -3 16 -8 -7 -6 -31 -28 -34
-24 -4 3 20 -25 30 -75 26 -21 -2 -31 -7 -27 -15 2 -7 1 -13 -3 -13 -4 0 -8
-9 -9 -20 -1 -16 2 -20 18 -15 15 5 19 2 19 -19 0 -28 41 -59 48 -37 2 6 8 9
13 5 5 -3 9 -1 9 4 0 6 14 7 35 2 29 -7 35 -5 40 11 4 11 14 19 23 18 11 0 13
-2 4 -6 -10 -4 -9 -8 5 -18 13 -10 20 -10 25 -2 4 7 6 2 5 -10 0 -12 -4 -20
-7 -18 -3 2 -12 -10 -19 -26 -7 -16 -17 -27 -21 -24 -5 3 -12 0 -16 -6 -4 -7
-3 -9 3 -6 6 4 13 -5 15 -22 3 -17 0 -29 -6 -28 -6 1 -15 -8 -20 -20 -6 -13
-17 -25 -24 -28 -7 -2 -11 -1 -8 3 3 4 -5 14 -17 22 -20 12 -21 12 -9 -2 11
-14 8 -19 -15 -38 -19 -14 -35 -19 -52 -15 -35 9 -126 -30 -140 -61 -6 -14
-15 -23 -20 -19 -6 3 -19 -4 -30 -17 -12 -12 -24 -18 -28 -15 -3 4 -1 7 5 7 7
0 12 5 12 11 0 8 -5 7 -15 -1 -9 -7 -14 -19 -11 -26 3 -8 -2 -11 -13 -9 -10 2
-32 -4 -49 -12 -26 -13 -30 -18 -21 -30 10 -11 9 -12 -5 -7 -9 3 -22 1 -30 -5
-7 -6 -17 -7 -21 -3 -5 4 -5 2 -1 -5 4 -7 14 -10 24 -7 9 2 4 -2 -13 -10 -16
-8 -34 -12 -39 -8 -5 3 -6 0 -2 -7 5 -8 0 -14 -13 -18 -12 -3 -21 -10 -21 -15
0 -5 -4 -6 -10 -3 -5 3 -10 -1 -10 -11 0 -11 -6 -15 -20 -11 -13 3 -20 0 -20
-9 0 -8 -8 -18 -17 -21 -9 -4 -34 -24 -55 -45 -21 -21 -42 -37 -47 -34 -14 9
-5 -34 11 -53 10 -12 12 -24 6 -40 -4 -13 -6 -27 -2 -32 3 -5 -4 -9 -15 -9
-12 0 -21 6 -21 13 0 8 -3 8 -9 -2 -5 -8 -19 -16 -32 -18 -25 -4 -48 -30 -49
-55 0 -10 -6 -15 -17 -12 -13 4 -22 -4 -31 -24 -7 -17 -21 -32 -32 -35 -13 -3
-18 -12 -15 -26 4 -23 -10 -37 -21 -20 -5 8 -3 9 7 4 11 -6 11 -5 3 5 -10 9
-16 8 -33 -9 -12 -12 -21 -27 -21 -33 0 -7 10 -2 21 12 13 15 19 18 15 8 -4
-13 -1 -15 11 -11 13 5 15 2 10 -18 -4 -13 -7 -34 -7 -46 0 -15 -6 -23 -17
-23 -16 0 -16 2 -3 11 13 9 13 10 0 6 -10 -2 -15 -15 -14 -38 1 -33 -9 -49
-31 -49 -5 0 -3 5 5 10 13 8 13 10 -1 10 -23 0 -30 -11 -18 -26 6 -8 8 -22 4
-31 -6 -16 -8 -16 -19 5 -7 12 -15 20 -19 16 -4 -4 -2 -13 4 -21 9 -10 3 -10
-25 2 -20 8 -36 13 -36 10 0 -3 13 -11 30 -16 16 -6 27 -15 24 -20 -3 -5 -10
-6 -16 -3 -7 5 -8 2 -3 -5 5 -9 10 -10 18 -2 14 14 40 14 35 0 -2 -6 -7 -10
-12 -9 -5 1 -12 -4 -17 -11 -6 -10 -11 -10 -23 1 -9 7 -19 10 -23 6 -3 -3 0
-6 7 -6 9 0 8 -5 -4 -19 -10 -11 -13 -22 -8 -25 5 -3 15 1 22 9 16 19 30 19
30 0 0 -8 8 -15 18 -16 9 0 12 -3 5 -5 -7 -3 -21 0 -32 6 -18 9 -21 8 -18 -7
4 -29 34 -66 47 -58 6 4 10 15 7 25 -3 13 0 17 9 14 47 -14 47 -15 36 -26 -32
-32 -1 -44 47 -18 12 6 21 7 21 3 0 -15 -35 -39 -50 -36 -11 3 -10 1 1 -6 13
-8 34 -6 80 9 34 11 65 17 68 14 3 -4 0 -9 -6 -11 -7 -3 -13 -9 -13 -15 0 -6
7 -7 16 -4 8 3 12 2 9 -4 -3 -6 -15 -10 -26 -10 -10 0 -19 -5 -19 -10 0 -6
-10 -8 -22 -5 -58 13 -104 12 -120 -2 -12 -11 -26 -13 -45 -8 -15 3 -30 6 -32
5 -2 -1 -7 4 -11 10 -4 7 -28 15 -54 17 -25 3 -46 9 -46 14 0 5 6 6 14 3 8 -3
16 -1 20 4 3 5 -5 8 -16 7 -12 -1 -23 -6 -25 -12 -2 -6 -25 -3 -60 8 -31 11
-67 19 -80 19 -15 0 -23 6 -23 18 0 11 -3 13 -8 5 -7 -11 -198 -12 -264 0 -42
7 -34 -11 11 -24 37 -11 38 -12 23 -30 -20 -23 -32 -24 -32 -4 0 8 -9 19 -19
25 -27 14 -31 13 -31 -7 0 -15 -2 -16 -10 -3 -6 9 -5 17 3 22 7 4 3 10 -13 16
-14 5 -27 8 -30 7 -5 -2 -134 -17 -175 -19 -11 -1 -27 -6 -35 -11 -8 -5 -17
-10 -20 -10 -33 -5 -70 -19 -70 -26 0 -5 -5 -9 -11 -9 -7 0 -18 -8 -25 -17
-12 -16 -13 -16 -8 -1 4 13 1 15 -15 11 -11 -3 -19 -8 -17 -12 3 -4 -4 -7 -14
-7 -10 0 -17 4 -14 8 2 4 -5 6 -16 5 -11 -1 -20 -8 -20 -17 -1 -13 -2 -13 -13
0 -7 9 -24 15 -39 15 -23 -1 -25 1 -15 14 10 12 8 14 -12 8 -18 -4 -24 -1 -28
14 -3 11 -10 16 -17 12 -17 -11 -36 -12 -36 -2 0 5 -5 9 -10 9 -6 0 -8 -10 -5
-23 5 -18 1 -26 -16 -33 -16 -7 -19 -13 -11 -18 7 -4 12 -2 12 3 0 6 5 11 11
11 5 0 7 -4 4 -10 -3 -5 -2 -10 4 -10 5 0 13 5 16 10 11 18 21 10 20 -17 0
-21 5 -28 18 -27 9 1 17 -2 17 -7 0 -6 9 -5 20 1 16 8 20 8 20 -4 0 -10 6 -13
16 -9 13 5 13 7 2 15 -8 5 -4 6 14 2 19 -4 29 -1 37 13 6 10 11 14 11 9 0 -5
6 -4 13 2 7 6 18 7 26 2 10 -6 3 -15 -29 -35 -24 -15 -50 -28 -59 -30 -9 -1
-17 -12 -17 -24 -1 -17 7 -27 30 -37 17 -7 24 -13 15 -14 -14 0 -75 25 -89 37
-2 2 2 8 10 13 8 6 10 10 4 10 -6 0 -17 -7 -24 -15 -10 -12 -10 -15 1 -15 8 0
1 -11 -16 -25 l-30 -24 30 0 c21 -1 26 2 16 8 -9 6 -10 11 -2 15 6 4 14 1 17
-7 3 -10 16 -13 40 -10 18 2 34 0 35 -4 0 -5 2 -16 4 -25 2 -11 -2 -15 -11
-11 -7 3 -23 -6 -34 -18 -39 -46 -96 -145 -92 -158 3 -8 0 -11 -6 -7 -7 4 -19
-2 -29 -14 -24 -28 -55 -27 -51 3 2 17 8 21 30 19 22 -3 32 5 60 45 45 66 68
110 68 130 -1 13 -5 10 -16 -9 -8 -16 -17 -28 -20 -28 -3 0 -2 5 1 10 3 6 -1
10 -9 10 -9 0 -16 7 -16 16 0 10 -6 14 -14 11 -8 -3 -22 3 -31 13 -17 19 -17
21 6 39 14 12 18 20 11 21 -21 0 -53 -43 -39 -52 9 -6 8 -11 -3 -18 -10 -6
-16 -6 -18 0 -5 14 -29 12 -38 -2 -5 -7 -2 -9 7 -4 8 4 5 0 -6 -9 -17 -14 -18
-17 -5 -26 13 -9 13 -10 0 -6 -8 2 -14 12 -14 21 1 9 -3 16 -8 16 -11 0 -47
-18 -62 -32 -23 -20 -82 -52 -96 -52 -8 -1 -14 -6 -13 -12 1 -6 -8 -10 -20 -9
-12 1 -35 -4 -52 -10 -16 -7 -36 -10 -42 -8 -7 3 -13 0 -13 -7 0 -7 -6 -8 -19
0 -12 6 -22 6 -25 1 -4 -5 -25 -9 -49 -9 -23 0 -44 -1 -47 -2 -3 -1 -19 -3
-37 -4 -18 -1 -35 -5 -39 -9 -14 -13 -64 -8 -64 7 0 8 -5 18 -11 22 -7 4 -9 0
-5 -14 10 -30 -19 -36 -38 -7 -22 33 -20 44 9 51 14 3 22 10 19 15 -8 14 -18
11 -42 -11 -17 -16 -21 -28 -17 -50 3 -17 2 -30 -2 -30 -5 0 -28 21 -51 47
-40 44 -43 45 -38 21 8 -34 -1 -35 -48 -3 -20 14 -41 25 -46 25 -6 0 -10 3
-10 8 0 4 -12 13 -27 20 -33 15 -53 1 -33 -23 11 -13 9 -15 -9 -15 -15 0 -20
-4 -15 -12 4 -8 2 -8 -7 1 -11 10 -11 15 -1 18 6 3 12 10 12 16 0 5 -3 7 -6 4
-4 -3 -16 -1 -28 5 -17 9 -19 8 -8 -3 14 -15 16 -29 4 -29 -4 0 -23 14 -42 32
-19 17 -36 30 -38 29 -2 -1 -20 8 -40 20 -102 62 -113 61 -50 -7 l43 -47 -32
6 c-37 7 -42 1 -16 -19 10 -7 14 -16 10 -20 -4 -5 -12 -2 -17 6 -7 11 -12 12
-21 3 -8 -8 -5 -20 16 -47 33 -44 24 -48 -13 -6 -46 51 -49 55 -44 69 3 10 -3
12 -27 9 -26 -4 -31 -1 -31 16 0 18 -1 18 -12 3 -12 -14 -15 -14 -33 -1 -11 8
-19 17 -17 19 6 12 1 25 -9 25 -8 0 -8 -5 1 -15 19 -23 0 -18 -29 7 -21 19
-20 17 3 -10 17 -17 26 -32 20 -32 -5 0 0 -7 10 -15 11 -8 14 -15 7 -15 -7 0
-10 -4 -6 -10 3 -5 -3 -25 -14 -45 -10 -20 -21 -31 -23 -24 -3 8 -9 7 -20 -5
-12 -12 -18 -13 -21 -3 -6 13 -10 -14 -8 -48 l1 -20 -9 20 c-5 11 -7 23 -4 27
2 4 -3 5 -11 2 -9 -3 -18 -21 -22 -40 -4 -22 -12 -34 -23 -34 -14 0 -14 2 -1
10 10 6 11 10 3 10 -7 0 -13 5 -13 10 0 6 7 10 15 10 17 0 19 9 6 28 -7 11 -9
10 -15 -3 -3 -9 -11 -13 -17 -9 -8 5 -10 -3 -7 -25 3 -22 1 -31 -10 -31 -10 0
-13 8 -9 28 l6 27 -12 -27 c-6 -16 -17 -28 -25 -28 -7 0 -10 -5 -6 -11 3 -6 3
-14 -2 -18 -5 -3 -15 -16 -22 -29 -12 -22 -12 -23 8 -12 11 6 20 8 20 4 0 -4
9 1 20 11 23 21 27 11 5 -11 -8 -9 -18 -13 -22 -11 -5 3 -15 -2 -23 -11 -13
-14 -13 -15 1 -10 12 5 14 0 11 -23 -2 -16 0 -29 5 -29 5 0 10 12 11 27 3 36
10 40 22 12 10 -22 10 -22 6 8 -4 22 -1 33 10 37 13 5 14 0 9 -27 l-7 -32 21
19 c11 11 21 14 21 8 0 -7 -5 -12 -12 -12 -9 0 -9 -3 0 -12 15 -15 16 -32 2
-23 -10 6 -14 -15 -11 -44 2 -7 -2 -10 -8 -6 -7 3 -11 -3 -12 -17 -1 -17 -3
-18 -6 -5 -3 10 -14 17 -26 17 -22 -1 -22 -1 -3 -15 23 -17 17 -19 -19 -5 -14
5 -24 6 -21 1 3 -4 -6 -13 -19 -19 -19 -9 -25 -9 -25 0 0 6 -3 8 -6 5 -4 -4
-2 -13 5 -21 9 -11 8 -15 -5 -20 -14 -6 -16 -1 -11 36 2 24 3 37 0 31 -8 -21
-25 -15 -18 6 5 16 2 18 -15 14 -26 -7 -26 -29 0 -43 11 -6 20 -18 20 -27 0
-14 -2 -14 -15 3 -13 18 -14 18 -8 -5 4 -14 1 -26 -8 -32 -22 -14 -37 -11 -42
9 -4 16 -5 16 -6 0 -1 -21 -5 -22 -30 -9 -10 6 -23 6 -32 0 -11 -7 -11 -9 4
-9 10 0 17 -7 16 -17 -1 -22 -17 -63 -18 -45 -2 21 -15 13 -36 -21 -29 -47
-30 -54 -7 -34 11 10 23 14 26 9 3 -5 29 -8 58 -7 67 3 68 3 68 15 0 5 -8 7
-17 4 -17 -5 -17 -5 0 6 9 6 21 9 26 6 5 -3 11 0 14 8 3 8 14 13 24 12 10 -2
33 1 51 5 22 5 32 4 29 -4 -1 -5 -12 -12 -22 -13 -22 -3 -54 -41 -55 -64 0
-13 -1 -13 -10 0 -7 10 -8 4 -4 -20 5 -31 3 -36 -15 -36 -12 0 -21 6 -21 13 0
8 7 10 18 6 14 -6 15 -4 5 9 -7 8 -10 18 -6 21 3 4 2 7 -4 7 -16 0 -45 -50
-39 -66 3 -8 -1 -14 -10 -14 -11 0 -13 6 -9 20 8 25 4 25 -39 1 -21 -12 -37
-16 -43 -10 -5 5 -17 7 -25 4 -24 -10 -7 -61 18 -57 10 2 21 8 24 12 3 5 14 2
24 -6 19 -14 19 -14 -3 -14 -15 0 -20 -4 -15 -12 5 -9 2 -9 -9 1 -15 12 -17
11 -17 -3 0 -9 -6 -16 -12 -15 -29 3 -40 -2 -34 -16 3 -9 0 -15 -9 -15 -9 0
-12 -6 -9 -17 3 -10 -1 -8 -8 5 l-14 23 -12 -25 c-8 -19 -9 -26 0 -26 6 0 17
-8 25 -17 8 -10 12 -13 8 -6 -3 8 4 15 20 19 14 3 25 10 25 15 0 5 9 9 21 9
11 0 18 4 15 9 -4 5 3 7 14 4 11 -3 20 -10 20 -15 0 -5 -5 -6 -12 -2 -7 5 -8
3 -3 -6 6 -10 12 -8 24 7 9 11 31 29 49 39 41 23 42 40 2 19 -29 -15 -50 -13
-50 5 0 4 10 6 22 2 16 -4 19 -2 13 8 -6 10 -4 12 8 7 9 -3 18 0 21 9 8 21 36
17 36 -5 0 -20 -25 -51 -41 -51 -5 0 -9 -5 -9 -11 0 -6 6 -9 14 -6 7 3 23 -1
35 -9 12 -9 21 -11 21 -5 0 6 -4 11 -10 11 -5 0 -10 7 -10 15 0 8 5 15 10 15
6 0 10 -5 10 -11 0 -5 5 -7 10 -4 6 3 10 13 10 21 0 9 -5 12 -12 8 -7 -4 -8
-3 -4 5 4 6 4 18 -1 24 -4 7 2 1 15 -13 20 -22 23 -22 20 -5 -2 10 -18 30 -37
42 -19 13 -31 24 -27 24 3 1 12 2 19 3 6 1 11 13 10 26 -1 14 0 20 3 14 6 -13
66 -5 76 10 4 6 8 7 8 1 0 -20 -16 -32 -40 -30 -23 2 -39 -9 -40 -27 0 -4 13
-21 30 -38 29 -30 53 -32 64 -4 3 9 10 12 16 9 5 -3 10 -1 10 6 0 6 -8 9 -20
6 -11 -3 -20 -1 -20 4 0 17 28 21 52 8 14 -7 18 -14 10 -17 -17 -5 -15 -22 3
-22 18 0 20 31 4 47 -6 6 -8 16 -5 21 8 14 94 13 102 0 4 -7 2 -8 -4 -4 -8 5
-10 1 -5 -10 5 -14 2 -16 -16 -11 -19 5 -22 2 -18 -13 4 -14 -3 -24 -26 -35
-35 -17 -57 -19 -57 -5 0 6 -5 10 -11 10 -6 0 -8 -9 -4 -21 6 -19 4 -21 -14
-16 -11 3 -24 1 -27 -5 -4 -6 -10 -5 -16 3 -7 11 -8 9 -4 -4 3 -10 6 -23 6
-28 0 -5 8 -9 18 -8 10 0 12 3 5 6 -21 8 -15 23 10 23 13 0 27 4 33 10 6 6 19
5 35 -4 25 -13 26 -12 22 8 -4 16 -2 18 5 7 12 -16 42 -24 42 -11 0 5 -8 14
-17 19 -17 10 -17 10 -1 11 11 0 20 -10 24 -26 5 -17 9 -22 14 -13 5 6 0 27
-11 45 -10 19 -15 34 -10 34 5 0 12 -7 15 -16 5 -13 9 -14 21 -4 12 10 25 5
70 -29 30 -23 55 -44 55 -47 0 -10 -28 -34 -39 -34 -6 0 -11 -4 -11 -10 0 -5
5 -10 10 -10 6 0 10 -5 10 -12 0 -6 -7 -4 -18 5 -10 10 -21 14 -24 11 -3 -3
-20 -6 -37 -6 -19 -1 -31 -6 -31 -15 0 -18 -10 -16 -27 5 -12 15 -12 14 -2
-10 7 -15 16 -25 20 -22 5 3 9 0 9 -5 0 -6 -10 -9 -22 -7 -14 2 -22 10 -22 20
2 17 -21 22 -31 6 -3 -5 -1 -10 4 -10 6 0 11 -7 11 -16 0 -12 -6 -15 -21 -11
-12 3 -22 0 -26 -9 -3 -8 -10 -14 -17 -13 -6 1 -20 1 -31 0 -19 -1 -18 -3 5
-21 23 -18 26 -18 37 -3 7 9 16 13 20 9 5 -4 -1 -14 -11 -22 -15 -11 -22 -11
-34 -1 -13 10 -14 9 -5 -8 15 -27 23 -94 13 -100 -12 -7 -23 31 -16 53 5 16 0
19 -35 20 -22 1 -45 4 -49 7 -5 3 -11 1 -15 -5 -3 -5 1 -10 10 -10 9 0 14 -4
10 -10 -3 -5 -12 -7 -20 -3 -8 3 -15 1 -15 -5 0 -5 -9 -12 -20 -15 -12 -3 -20
-13 -19 -24 1 -16 2 -16 6 0 8 29 22 19 18 -13 -2 -16 0 -30 5 -30 6 0 10 14
10 32 l0 31 24 -44 c20 -39 27 -44 54 -42 21 2 32 -2 37 -15 5 -13 3 -14 -6
-5 -7 7 -18 8 -28 4 -88 -42 -111 -55 -111 -63 0 -6 -6 -8 -13 -5 -7 3 -24 -4
-38 -14 -27 -21 -44 -25 -33 -7 5 7 3 8 -5 3 -7 -4 -11 -16 -8 -26 3 -10 2
-20 -2 -22 -3 -2 1 -2 9 1 8 2 29 5 47 6 17 0 35 4 39 9 4 4 18 7 30 7 13 0
25 4 28 9 4 5 -4 7 -16 4 -13 -3 -20 -2 -15 2 14 16 48 15 53 0 7 -18 24 -20
24 -2 0 31 66 5 83 -33 4 -8 5 3 3 25 -4 35 -3 38 8 23 7 -10 18 -18 25 -18 6
0 11 -3 11 -7 1 -5 12 -21 26 -38 l25 -30 -10 28 c-14 36 0 34 34 -5 17 -21
29 -28 32 -20 3 6 12 12 20 12 13 0 13 -3 3 -15 -10 -12 -9 -15 4 -15 10 0 25
4 35 10 16 8 17 6 13 -18 -5 -25 -4 -26 12 -13 10 9 20 11 24 5 11 -15 82 -17
82 -2 0 20 20 -14 20 -34 0 -11 -8 -18 -20 -18 -11 0 -20 -5 -20 -12 0 -8 -3
-9 -10 -2 -11 11 -91 -4 -107 -19 -4 -5 0 -5 9 -2 20 8 35 -14 17 -26 -7 -4
-10 -11 -7 -15 10 -9 35 19 30 34 -2 7 5 12 17 12 12 0 21 -5 21 -11 0 -5 5
-7 11 -3 8 4 9 -1 4 -16 -5 -15 -4 -20 4 -16 6 4 11 16 11 27 0 27 40 26 47
-2 6 -21 7 -21 20 -4 10 14 13 15 13 4 0 -8 -10 -23 -22 -33 -13 -12 -19 -13
-16 -5 3 8 2 23 -3 34 -7 19 -8 19 -8 -2 -1 -15 -9 -23 -30 -28 -17 -3 -32
-14 -34 -23 -4 -13 -5 -13 -6 -2 -1 11 -13 15 -46 15 -32 0 -42 -3 -33 -10 7
-6 14 -16 15 -23 4 -18 -44 -15 -51 4 -5 14 -4 15 9 4 10 -8 15 -9 15 -1 0 11
-15 16 -35 11 -5 -1 -18 -4 -28 -6 -42 -8 -55 -15 -53 -32 0 -9 -6 -17 -14
-18 -29 -2 -80 -17 -80 -23 0 -4 -22 -6 -50 -5 -44 1 -50 -2 -50 -20 0 -12 -3
-16 -8 -10 -10 14 -58 12 -74 -3 -6 -7 -22 -13 -34 -13 -13 0 -26 -5 -29 -11
-11 -17 2 -22 25 -9 12 6 25 9 28 5 9 -9 -28 -36 -39 -29 -5 3 -6 -2 -3 -11 5
-12 10 -13 17 -6 17 17 27 13 27 -9 0 -11 5 -20 10 -20 6 0 10 -8 10 -17 0
-15 -2 -16 -10 -3 -5 8 -10 11 -10 5 1 -5 7 -18 14 -28 13 -16 15 -13 25 33 6
29 9 56 5 61 -3 5 -3 9 0 9 3 0 13 -12 21 -27 9 -16 14 -20 11 -10 -3 11 0 17
9 17 22 0 18 -31 -4 -37 -29 -7 -32 -27 -10 -69 10 -21 19 -31 19 -21 0 9 4
17 10 17 5 0 6 -7 3 -17 -4 -11 -3 -14 6 -9 8 5 14 1 18 -13 3 -12 9 -21 12
-21 11 0 10 33 -2 48 -6 8 -6 12 1 12 6 0 13 -6 15 -12 3 -8 6 -6 6 5 1 9 5
17 11 17 5 0 7 -8 3 -17 -5 -16 -4 -16 10 -3 15 14 14 65 -2 56 -3 -2 -6 9 -6
25 0 16 3 29 8 29 4 0 4 12 1 26 -5 19 -4 25 5 20 6 -4 11 -12 11 -17 0 -14
26 -39 40 -39 6 0 9 4 5 9 -3 5 -1 12 5 16 5 3 10 0 10 -8 0 -10 7 -13 20 -10
11 3 20 0 20 -6 0 -6 5 -11 11 -11 6 0 8 11 5 28 -7 31 7 62 19 42 4 -7 2 -16
-6 -21 -11 -6 -9 -12 9 -29 23 -21 29 -40 13 -40 -5 0 -12 6 -14 13 -4 9 -6 9
-6 0 -1 -7 8 -17 19 -23 11 -6 20 -17 20 -25 0 -8 4 -15 9 -15 5 0 7 -9 4 -20
-3 -11 -10 -20 -15 -20 -5 0 -6 10 -3 21 5 15 4 19 -4 15 -6 -4 -11 -16 -11
-27 0 -10 -5 -19 -11 -19 -8 0 -9 13 -5 39 4 30 2 40 -10 45 -8 3 -13 10 -10
15 8 13 -21 22 -49 15 -19 -5 -22 -10 -15 -32 4 -18 13 -26 24 -24 10 2 15 -1
12 -6 -3 -6 -2 -12 3 -14 5 -1 12 -23 15 -48 3 -25 3 -39 0 -32 -7 15 -34 16
-34 1 0 -5 6 -7 13 -3 7 4 7 2 -2 -7 -10 -11 -15 -11 -18 -1 -3 6 -11 12 -19
12 -24 0 -15 -14 20 -31 30 -13 33 -14 28 -1 -3 9 -1 13 5 9 17 -11 24 -50 8
-43 -9 3 -12 0 -9 -9 4 -9 -3 -16 -19 -20 -13 -4 -29 -17 -36 -31 -9 -21 -8
-24 9 -24 25 0 27 -30 3 -31 -14 0 -13 -3 6 -12 20 -9 26 -8 38 8 14 20 15 20
13 0 -4 -34 -1 -36 21 -14 11 11 18 26 15 32 -3 9 -5 9 -5 0 -1 -7 -5 -13 -10
-13 -5 0 -9 15 -8 34 1 19 4 32 6 30 2 -2 10 4 17 14 12 16 13 16 19 -1 7 -17
8 -17 22 0 14 17 14 17 10 -4 -6 -25 0 -28 23 -13 10 6 11 10 3 10 -7 0 -13 9
-13 21 0 16 -4 20 -17 15 -16 -5 -16 -4 1 8 14 12 21 12 31 3 7 -7 10 -18 8
-24 -3 -7 0 -13 6 -13 6 0 10 -3 10 -7 -4 -27 2 -34 24 -26 12 4 60 8 107 8
85 0 85 0 82 25 l-2 25 13 -24 c12 -21 12 -26 -2 -40 -10 -11 -19 -13 -23 -7
-10 16 -16 4 -9 -18 7 -17 8 -17 23 -2 9 9 21 16 27 16 6 0 11 7 11 15 0 10 9
14 25 13 27 -3 33 -13 13 -21 -10 -4 -10 -6 0 -6 7 -1 10 -6 7 -12 -4 -5 1
-20 12 -31 18 -21 18 -21 -4 -9 -30 15 -35 14 -28 -8 4 -14 0 -23 -15 -31 -11
-6 -20 -7 -20 -2 0 5 -7 9 -15 9 -19 0 -19 -5 -1 -23 15 -15 46 -9 46 9 0 7 4
7 12 -1 16 -16 8 -22 -41 -27 -27 -2 -39 0 -35 7 4 6 -1 8 -15 3 -12 -3 -21
-2 -21 3 0 6 5 12 11 14 5 2 11 12 13 23 2 11 11 21 22 23 16 3 17 1 4 -7 -18
-13 -1 -14 19 -2 12 8 9 11 -13 17 -19 4 -31 2 -36 -6 -4 -7 -13 -9 -19 -6 -7
4 -11 -1 -11 -12 0 -15 -8 -21 -37 -24 -21 -3 -47 -8 -58 -12 -18 -7 -18 -6
-2 4 9 6 15 15 12 21 -4 5 1 9 9 9 8 0 18 5 22 11 9 15 -38 0 -48 -15 -5 -7
-8 -4 -8 7 0 23 -12 22 -28 -3 -7 -11 -19 -20 -27 -20 -8 0 -15 -6 -15 -12 0
-9 -3 -9 -8 -2 -4 6 -24 10 -45 9 -28 -1 -37 2 -33 12 3 7 -1 13 -8 13 -21 0
-28 -30 -10 -47 8 -8 12 -18 8 -22 -4 -3 -9 0 -11 7 -3 6 -11 12 -19 12 -12 0
-12 4 -4 21 7 11 10 22 8 23 -2 1 -20 9 -41 19 -20 9 -36 20 -35 24 1 5 -2 18
-6 31 -6 18 -2 28 18 47 33 31 33 34 -4 33 -16 -1 -30 -5 -30 -10 0 -5 -11 4
-24 19 -23 27 -23 28 -5 35 11 5 16 13 13 23 -3 8 -10 13 -14 10 -16 -10 -70
8 -70 23 0 13 -3 12 -15 -4 -8 -10 -14 -26 -15 -34 0 -13 1 -13 10 0 15 24 24
2 10 -25 -18 -33 -24 -32 -40 10 -7 19 -15 33 -17 31 -3 -2 -6 -33 -9 -68 -4
-51 -2 -68 11 -78 10 -8 15 -9 15 -1 0 6 14 11 30 11 17 0 30 3 30 8 0 10 -54
9 -61 -1 -4 -5 -9 -5 -12 0 -4 6 0 19 8 29 13 16 16 17 24 4 8 -12 13 -12 23
-2 16 16 29 16 25 0 -1 -8 7 -12 23 -11 14 1 19 0 13 -3 -22 -10 -14 -26 10
-19 21 6 21 5 3 -9 -10 -9 -22 -13 -26 -11 -4 3 -10 -4 -13 -14 -3 -12 0 -18
7 -15 6 2 17 -5 24 -16 10 -16 9 -23 -5 -40 -10 -11 -23 -20 -30 -20 -7 0 -16
-12 -19 -26 -5 -19 -9 -22 -15 -13 -4 8 -3 16 3 20 14 9 0 49 -17 49 -8 0 -17
-4 -20 -10 -3 -6 -1 -10 5 -10 6 0 8 -5 4 -11 -5 -8 -10 -6 -16 5 -5 9 -7 20
-3 25 3 5 0 13 -6 17 -16 10 -30 -17 -24 -45 4 -15 1 -27 -7 -32 -10 -7 -9 -9
4 -9 10 0 17 -5 15 -11 -1 -6 4 -14 11 -16 7 -3 10 1 7 10 -3 7 2 20 11 28 10
8 15 9 11 2 -4 -6 -4 -13 0 -16 5 -2 3 -2 -4 -1 -7 2 -11 -9 -10 -28 1 -20 -3
-33 -13 -35 -12 -4 -12 -3 -1 5 8 6 9 12 3 16 -5 3 -15 0 -21 -8 -9 -10 -8
-15 4 -20 9 -3 15 -16 14 -28 -3 -38 0 -58 11 -58 6 0 6 9 1 23 -5 13 -5 30
-1 38 7 11 10 10 16 -4 4 -10 13 -16 20 -13 7 3 18 -3 23 -12 10 -16 10 -16
11 1 0 10 4 16 9 12 5 -3 12 -1 16 5 6 10 -2 12 -55 14 -15 1 -26 8 -28 18 -3
15 2 17 30 11 77 -14 92 -28 62 -57 -8 -9 -12 -16 -7 -16 4 0 -1 -8 -12 -16
-20 -16 -20 -16 1 -10 18 6 21 3 16 -19 -2 -14 -10 -25 -17 -25 -15 0 -41 23
-47 41 -3 9 -10 8 -26 -2 -12 -8 -22 -17 -22 -21 0 -13 28 -9 33 5 2 6 8 8 13
4 5 -5 0 -15 -11 -24 -17 -14 -18 -15 -2 -9 23 7 67 -3 67 -15 0 -15 -54 -32
-58 -20 -7 20 -20 11 -15 -9 3 -11 10 -20 15 -20 6 0 6 -6 -1 -14 -14 -17 3
-32 32 -28 9 2 17 -2 17 -7 0 -6 -4 -11 -9 -11 -6 0 -6 -12 -1 -30 5 -18 5
-30 -1 -30 -5 0 -9 -7 -9 -15 0 -8 6 -12 14 -9 11 4 14 -1 13 -23 -2 -19 -11
-32 -29 -41 -38 -18 -24 -50 17 -42 7 1 7 -2 0 -8 -16 -15 -63 -23 -70 -12 -3
5 0 10 7 11 7 0 3 5 -10 11 -13 7 -21 17 -18 25 3 7 -1 13 -9 13 -8 0 -15 -4
-15 -10 0 -5 -4 -10 -10 -10 -22 0 -8 19 20 29 31 10 31 11 15 40 -14 28 -14
30 1 24 9 -3 20 0 25 8 6 10 2 17 -16 24 -23 10 -24 12 -10 39 8 16 15 30 15
33 0 10 -27 -23 -34 -42 -4 -12 -10 -15 -14 -9 -8 12 -42 26 -42 17 0 -3 8
-12 18 -19 9 -7 12 -14 6 -14 -10 0 -11 -18 -5 -52 0 -4 9 -4 19 -1 14 6 15 4
4 -9 -7 -9 -11 -21 -10 -28 2 -7 -3 -15 -11 -18 -10 -3 -13 1 -9 16 3 12 1 23
-5 25 -13 4 -19 147 -6 147 5 0 9 -6 9 -14 0 -24 33 -23 58 1 22 22 30 39 13
29 -5 -4 -12 0 -14 6 -3 7 -6 3 -6 -9 -1 -24 -34 -33 -46 -13 -9 14 -45 12
-42 -2 1 -7 -5 -13 -13 -13 -8 0 -15 5 -15 10 0 6 -3 15 -6 20 -3 6 2 18 13
28 17 16 18 16 18 -3 0 -26 13 -25 25 2 13 29 30 33 32 8 1 -11 -2 -18 -8 -15
-5 4 -9 2 -9 -3 0 -5 9 -12 20 -15 15 -4 20 0 20 13 0 10 6 21 13 24 6 3 1 3
-13 0 -25 -7 -25 -7 -6 15 15 17 22 19 29 9 6 -10 7 -9 4 2 -2 8 -11 13 -18
11 -8 -3 -31 -4 -52 -4 -26 1 -45 -5 -58 -18 -10 -10 -25 -16 -33 -13 -8 3
-17 1 -21 -5 -3 -6 1 -11 10 -11 9 0 14 -4 10 -9 -3 -6 0 -13 7 -18 14 -9 19
-63 6 -63 -4 0 -8 -4 -8 -10 0 -19 28 -10 33 11 4 14 10 18 18 13 9 -5 3 -16
-22 -37 -63 -53 -79 -61 -92 -47 -7 8 -8 11 -1 7 6 -4 19 2 29 13 10 11 14 20
10 20 -4 0 0 9 10 20 14 16 16 23 7 32 -9 9 -12 8 -12 -5 0 -15 -3 -16 -22 -6
-21 11 -22 11 -9 -4 14 -18 5 -22 -18 -8 -10 6 -10 10 -1 16 7 4 9 17 6 31 -4
16 -1 26 11 33 10 6 14 10 8 10 -20 0 -55 -37 -49 -53 9 -23 -22 -31 -41 -12
-9 9 -21 16 -28 16 -6 0 -2 -7 9 -15 17 -13 17 -14 2 -15 -10 0 -18 -7 -18
-15 0 -10 -10 -15 -34 -15 -21 0 -36 6 -40 15 -6 17 5 20 20 5 6 -6 10 -3 11
11 1 11 -5 23 -13 26 -8 3 -14 9 -14 14 0 4 8 5 18 2 16 -7 16 -6 -1 11 -16
16 -15 42 2 32 4 -3 8 1 8 9 0 11 -4 12 -14 4 -7 -6 -13 -8 -13 -4 0 4 -7 2
-15 -5 -13 -11 -13 -15 -3 -21 11 -7 11 -9 0 -9 -7 0 -11 -4 -8 -9 10 -15 -64
15 -82 34 -16 17 -16 17 3 13 11 -2 28 4 38 14 9 10 13 18 9 18 -4 0 -13 -5
-19 -11 -13 -13 -33 -4 -33 16 0 10 -9 14 -25 13 -14 -1 -25 -6 -25 -11 0 -5
7 -7 15 -4 8 4 17 2 20 -3 4 -6 -5 -10 -18 -10 -20 0 -23 -4 -19 -25 3 -20 0
-25 -17 -25 -13 0 -21 -7 -22 -17 0 -11 -3 -13 -6 -5 -2 6 -16 12 -30 12 -33
0 -25 9 13 16 38 7 44 12 44 35 0 11 -5 17 -10 14 -6 -4 -8 -11 -5 -16 4 -5
-3 -9 -15 -9 -20 0 -20 1 -6 22 9 12 16 27 16 33 0 5 -4 4 -9 -4 -5 -7 -14
-10 -20 -7 -16 10 -13 24 7 29 16 4 16 5 0 6 -10 0 -18 7 -19 14 0 6 -5 1 -11
-13 -11 -25 -11 -25 -15 -2 -3 12 -9 22 -14 22 -6 0 -8 -4 -4 -9 3 -5 1 -12
-4 -15 -5 -3 -7 -15 -4 -26 3 -12 0 -20 -6 -20 -7 0 -9 -5 -6 -10 11 -18 35
-11 35 10 0 11 4 20 9 20 5 0 9 -13 9 -29 -1 -26 -3 -28 -32 -21 -26 6 -32 4
-32 -11 0 -10 3 -17 6 -17 18 2 30 -3 30 -13 0 -6 -6 -9 -14 -6 -23 9 -27 -21
-6 -36 11 -8 17 -17 13 -20 -3 -4 -11 0 -17 8 -10 12 -13 12 -24 -1 -10 -11
-10 -14 2 -14 7 0 16 -6 19 -14 7 -17 -31 -16 -41 1 -10 17 -72 29 -72 15 0
-6 10 -13 23 -15 15 -3 13 -4 -8 -4 -29 1 -30 3 -27 39 2 21 9 38 14 38 6 0 5
7 -2 15 -10 12 -10 19 -2 27 8 8 4 16 -14 30 -13 11 -22 23 -20 27 3 4 -1 8
-9 8 -13 0 -13 -3 -1 -21 8 -13 10 -29 5 -42 -5 -14 -4 -21 4 -20 7 0 13 -3
14 -9 2 -5 -4 -10 -12 -10 -8 0 -20 -6 -27 -13 -11 -11 -10 -12 4 -7 11 4 20
0 27 -14 16 -28 14 -31 -16 -32 l-28 0 25 -10 c18 -8 21 -12 11 -18 -10 -7
-10 -10 -1 -13 9 -3 8 -8 -4 -20 -23 -24 0 -35 26 -12 20 19 20 19 17 -6 -3
-15 -11 -25 -21 -25 -9 0 -20 -4 -24 -8 -13 -13 -24 -7 -24 13 0 17 -3 19 -19
8 -11 -7 -19 -17 -18 -22 3 -14 30 -35 38 -30 4 2 12 -3 18 -10 10 -11 8 -16
-8 -21 -12 -3 -21 -11 -21 -16 0 -5 -1 -12 -2 -16 -2 -4 20 -12 47 -19 32 -7
41 -12 25 -13 -20 -1 -22 -3 -10 -11 8 -5 10 -10 4 -10 -5 0 -15 5 -21 11 -15
15 -83 1 -83 -18 0 -11 7 -13 23 -9 14 3 31 -1 43 -10 15 -13 16 -15 2 -10
-20 6 -85 -11 -94 -25 -3 -6 -2 -15 4 -21 6 -6 8 -18 5 -27 -4 -13 -2 -13 7 2
6 9 8 22 5 27 -3 6 -1 10 5 10 6 0 8 5 5 10 -4 6 7 10 24 10 36 0 40 -7 9 -19
-21 -7 -20 -8 10 -13 19 -3 32 0 32 6 0 6 5 4 10 -4 8 -13 10 -13 10 2 0 9 -5
18 -12 20 -8 3 -8 9 -1 23 10 17 13 14 23 -25 9 -32 14 -40 21 -29 7 11 9 10
7 -6 -4 -56 18 -76 57 -51 22 15 53 6 42 -11 -3 -5 0 -10 8 -10 18 0 18 2 4
29 -8 15 -17 19 -39 14 -42 -8 -58 16 -29 43 26 24 40 20 15 -4 -23 -23 -20
-27 14 -20 38 8 73 -3 66 -21 -6 -15 23 -49 33 -38 3 4 0 9 -6 11 -20 7 -15
22 6 20 12 -1 17 -7 13 -19 -5 -21 16 -51 30 -42 6 4 14 0 19 -7 7 -11 9 -11
9 -1 0 8 5 10 12 6 6 -4 48 -8 92 -8 62 -1 87 -5 106 -19 23 -18 24 -18 3 -12
-23 6 -123 -32 -123 -47 0 -5 -7 -8 -15 -8 -8 0 -15 7 -15 15 0 8 7 15 15 15
8 0 15 5 15 10 0 13 -17 13 -24 1 -7 -10 -25 -9 -43 2 -9 6 -11 3 -7 -8 4 -10
13 -14 23 -11 11 4 10 2 -3 -9 -23 -18 -33 -19 -41 -5 -3 6 -1 10 6 10 7 0 9
3 5 8 -10 9 -89 10 -96 0 -7 -8 -32 -12 -72 -10 -22 2 -28 7 -28 25 0 12 -4
18 -8 12 -4 -5 -18 -12 -32 -14 -14 -2 -29 -4 -35 -5 -5 -1 -16 -5 -22 -9 -8
-5 -13 -3 -13 3 0 6 -5 8 -10 5 -6 -4 -8 -11 -5 -16 3 -5 -1 -6 -9 -3 -9 3
-14 9 -12 13 3 4 -4 12 -14 19 -11 7 -21 8 -25 2 -3 -5 -13 -6 -22 -3 -10 4
-14 2 -9 -5 3 -6 -4 -21 -16 -33 l-23 -21 25 8 c27 8 63 8 95 0 11 -2 41 -5
68 -5 26 -1 47 -6 47 -12 0 -7 -22 -9 -64 -6 -34 3 -69 1 -77 -4 -10 -6 -7 -9
13 -9 15 0 30 -5 34 -11 5 -8 9 -8 14 1 4 7 17 9 33 4 34 -8 35 -24 2 -24 -14
0 -25 -5 -25 -11 0 -7 9 -9 23 -5 12 3 25 6 30 6 4 0 7 7 7 15 0 9 6 12 15 9
8 -4 13 -10 10 -14 -8 -13 19 -18 37 -6 12 7 27 7 53 -2 19 -8 39 -11 44 -8 5
4 11 0 14 -6 3 -9 9 -7 19 6 10 12 17 15 22 8 10 -16 -11 -60 -31 -65 -10 -3
7 -5 37 -4 48 2 55 5 58 24 5 31 30 38 37 10 6 -23 8 -23 148 -21 134 2 232 8
357 20 35 3 50 2 41 -4 -10 -8 -10 -11 -1 -14 7 -2 -32 -4 -86 -4 -68 -1 -110
-6 -134 -16 -37 -17 -113 -33 -93 -20 6 4 -27 8 -73 8 -48 1 -84 -3 -84 -8 0
-5 -6 -8 -12 -5 -7 2 -19 -3 -25 -12 -8 -10 -15 -12 -20 -6 -5 6 -31 11 -58
11 -43 1 -51 -2 -52 -17 -1 -16 6 -18 60 -18 34 1 68 6 76 12 12 9 13 9 7 0
-4 -8 -2 -13 6 -13 7 0 24 -3 37 -7 22 -6 23 -4 17 20 -4 18 -2 27 5 27 7 0 9
-3 6 -7 -4 -3 -2 -12 4 -20 9 -10 8 -17 -2 -29 -10 -12 -25 -15 -68 -11 -31 3
-47 3 -36 0 11 -3 26 -10 33 -16 8 -6 44 -10 80 -10 37 0 75 -4 85 -9 12 -6
23 -6 31 1 16 13 108 3 121 -14 7 -8 29 -11 65 -9 l55 3 -55 -10 c-30 -5 -82
-14 -115 -18 l-60 -8 75 -4 c100 -5 197 0 239 11 22 6 39 6 46 0 7 -6 15 -6
20 -2 4 4 2 -3 -4 -15 -11 -22 -10 -23 21 -24 24 -1 27 -3 11 -6 -13 -2 -23
-8 -23 -12 0 -5 12 -6 26 -3 17 3 25 1 21 -6 -8 -12 18 -23 38 -16 8 4 15 2
15 -4 0 -5 -28 -13 -62 -18 -60 -7 -61 -8 -28 -15 19 -4 76 -6 125 -4 50 2
115 4 145 5 43 1 51 3 35 11 -17 8 -16 9 5 3 87 -20 128 -24 175 -14 6 1 24 2
40 1 l30 -2 -24 -13 c-12 -7 -43 -11 -67 -10 -30 2 -44 -1 -44 -9 1 -16 30
-54 30 -39 0 8 22 12 73 11 70 -1 71 -1 29 -11 -24 -5 -41 -12 -38 -15 3 -3
78 -7 166 -8 88 -1 164 -5 167 -9 3 -3 -8 -6 -25 -6 -42 0 -41 -20 1 -21 31 0
31 -1 8 -10 -14 -5 -30 -8 -37 -5 -7 3 -15 2 -18 -1 -3 -3 -29 -7 -58 -9 -114
-6 -159 -20 -128 -39 6 -3 10 -2 10 3 0 5 7 9 15 9 8 0 15 -5 15 -10 0 -5 5
-5 13 1 7 6 73 13 147 16 74 3 155 8 179 11 43 5 70 -10 71 -40 0 -5 -4 -5 -8
2 -5 9 -12 6 -21 -10 -13 -21 -13 -21 4 -7 17 14 18 13 13 -2 -6 -14 -4 -15
20 -2 15 7 34 24 44 36 l18 23 6 -22 c6 -21 36 -37 63 -33 8 1 10 -3 5 -12 -4
-7 2 -5 14 5 20 18 20 18 15 -1 -5 -22 25 -35 48 -21 15 9 42 -9 33 -22 -3 -5
-10 -7 -15 -4 -5 4 -9 1 -9 -6 0 -9 -3 -9 -14 0 -9 8 -29 10 -52 6 -48 -7 -53
-12 -21 -20 14 -4 24 -12 21 -18 -5 -14 -109 -15 -121 -2 -5 4 7 5 25 3 23 -3
36 0 39 9 8 21 -4 28 -23 12 -14 -11 -17 -10 -25 4 -12 21 -33 22 -53 2 -14
-14 -18 -14 -45 0 -32 16 -54 3 -24 -14 16 -9 16 -10 -4 -11 -15 0 -20 -5 -18
-17 2 -10 4 -25 4 -34 1 -19 31 -21 31 -2 0 8 -4 11 -10 8 -6 -3 -10 4 -10 17
0 18 2 20 10 8 6 -10 10 -11 10 -2 0 17 27 15 34 -4 3 -8 10 -13 15 -9 5 3 11
-5 13 -17 4 -28 62 -43 91 -23 14 9 15 14 5 18 -23 8 0 20 47 23 32 3 44 1 40
-7 -4 -5 -13 -8 -21 -5 -8 3 -14 1 -14 -4 0 -15 21 -12 41 6 13 12 22 13 36 5
17 -10 17 -10 0 -11 -10 0 -15 -4 -12 -10 4 -6 -8 -10 -30 -10 -20 0 -34 -4
-30 -10 3 -5 12 -7 19 -4 8 3 17 1 21 -5 10 -17 22 -13 28 10 3 13 10 18 17
14 9 -5 9 -10 1 -18 -13 -13 -15 -47 -2 -47 5 0 7 8 4 19 -3 12 2 20 14 23 23
6 29 -27 7 -36 -9 -3 -13 -15 -10 -30 3 -18 1 -23 -10 -19 -20 8 -18 -24 4
-37 16 -10 15 -12 -5 -26 -28 -20 -30 -34 -5 -34 27 0 34 -11 18 -29 -13 -14
-11 -16 13 -16 24 0 28 4 27 27 -1 16 -4 28 -8 28 -3 0 0 14 8 30 9 17 20 30
25 30 13 0 11 -14 -3 -28 -14 -14 -21 -65 -7 -57 5 4 9 13 9 21 0 9 13 29 29
45 16 16 32 37 34 47 3 10 5 6 6 -10 0 -16 -3 -28 -9 -28 -5 0 -14 -9 -20 -19
-7 -14 -5 -24 8 -41 15 -19 19 -20 37 -6 l20 15 -20 2 c-11 1 -23 1 -27 0 -5
0 -8 3 -8 9 0 5 13 7 29 4 23 -5 30 -2 35 12 3 11 3 0 0 -22 -5 -35 -2 -44 16
-57 l22 -15 -21 -7 c-12 -3 -21 -11 -21 -16 0 -13 14 -11 29 4 10 10 11 9 6
-5 -4 -9 -1 -18 7 -21 7 -2 5 -3 -4 -2 -10 2 -18 -1 -18 -6 0 -15 52 -10 64 7
14 19 40 10 60 -20 13 -21 12 -25 -10 -54 -15 -19 -30 -29 -39 -25 -22 8 -18
-10 5 -25 14 -8 19 -9 18 -1 -2 6 2 13 9 16 7 3 9 -3 6 -16 -3 -12 -13 -21
-22 -21 -14 -1 -14 -2 0 -10 8 -5 31 -5 51 -1 20 5 43 4 52 -1 13 -8 16 -4 15
24 0 28 -2 30 -9 13 -8 -19 -9 -19 -9 4 -1 17 -5 22 -17 17 -14 -5 -15 -4 -4
9 7 8 9 22 6 31 -4 11 -1 14 12 12 9 -2 25 6 35 17 10 11 16 14 12 8 -4 -8 0
-13 10 -13 12 0 15 6 11 23 l-6 22 11 -22 c13 -25 29 -30 30 -10 0 6 4 3 9 -8
l9 -20 1 20 1 20 8 -20 c5 -11 4 -25 0 -31 -6 -8 -4 -14 7 -18 13 -5 16 -1 12
24 -4 23 -1 29 11 28 21 -4 61 -39 61 -54 0 -6 9 -18 21 -25 20 -14 18 -49 -3
-49 -7 0 -6 5 1 14 8 10 8 16 -3 25 -9 7 -17 8 -20 2 -3 -5 -1 -11 6 -13 9 -3
9 -6 0 -12 -7 -4 -12 -2 -12 3 0 6 -7 11 -15 11 -8 0 -15 5 -15 10 0 6 -7 10
-15 10 -17 0 31 -51 51 -54 22 -3 56 -39 44 -46 -7 -4 2 -12 19 -20 17 -7 31
-16 31 -21 0 -12 -7 -11 -33 2 -21 10 -21 10 -3 -5 11 -9 23 -16 27 -16 3 0 4
-11 1 -25 -2 -15 0 -25 7 -25 7 0 10 4 7 9 -3 4 5 17 17 28 25 22 62 39 52 23
-3 -6 -12 -10 -19 -10 -9 0 -12 -9 -8 -27 4 -21 2 -25 -12 -20 -10 4 -16 1
-16 -7 0 -7 -6 -13 -12 -14 -7 0 -24 -4 -38 -8 -25 -7 -25 -7 -6 14 11 13 14
22 7 22 -6 0 -14 -7 -17 -15 -4 -8 -10 -12 -15 -9 -5 3 -9 0 -9 -5 0 -6 5 -11
10 -11 6 0 10 -9 10 -20 0 -11 -4 -20 -10 -20 -5 0 -10 7 -10 15 0 8 -3 14 -7
14 -19 -3 -33 2 -33 12 0 5 4 7 10 4 6 -4 7 1 3 11 -4 11 -8 13 -11 6 -2 -7
-12 -12 -23 -12 -10 0 -19 -4 -19 -10 0 -5 7 -7 15 -4 18 7 19 0 4 -27 -5 -11
-15 -16 -21 -13 -7 4 -8 3 -4 -4 4 -7 14 -12 22 -12 8 0 12 5 9 10 -3 6 1 10
9 10 9 0 16 5 16 11 0 5 5 7 10 4 6 -3 10 -11 10 -16 0 -6 -4 -7 -10 -4 -5 3
-10 0 -10 -8 0 -10 7 -13 19 -10 29 7 61 -26 60 -62 -1 -20 -3 -24 -6 -11 -8
31 -34 51 -70 52 -18 1 -30 -3 -27 -7 3 -5 1 -9 -5 -9 -5 0 -12 6 -14 13 -4 9
-6 9 -6 -1 -1 -8 9 -16 20 -19 21 -6 21 -6 3 -21 -18 -14 -18 -14 -1 -8 13 4
17 2 14 -6 -2 -7 -12 -12 -21 -11 -11 0 -15 -4 -12 -12 3 -9 0 -12 -10 -8 -16
6 -18 19 -4 28 6 3 10 14 10 23 0 10 -3 13 -8 7 -9 -13 -85 -13 -94 0 -5 6 -8
3 -8 -7 0 -10 -5 -18 -11 -18 -6 0 -8 7 -5 16 6 16 -10 37 -31 41 -7 2 -10 -4
-7 -12 4 -8 10 -15 15 -15 5 0 9 -5 9 -11 0 -5 -5 -7 -10 -4 -6 3 -13 0 -16
-9 -3 -8 -14 -14 -25 -13 -11 1 -17 7 -15 14 3 7 -1 13 -9 13 -9 0 -12 -6 -9
-15 4 -8 1 -15 -5 -15 -6 0 -11 3 -11 8 0 4 -24 5 -52 3 -29 -2 -47 -6 -40 -8
19 -7 14 -19 -8 -19 -13 0 -19 5 -16 13 3 7 1 13 -5 13 -15 0 -6 -35 9 -36 25
-3 25 -4 6 -18 -17 -13 -17 -18 -6 -36 8 -12 9 -19 3 -15 -6 3 -11 1 -11 -4 0
-6 5 -11 11 -11 5 0 7 -5 3 -11 -4 -8 -9 -7 -14 2 -6 9 -12 8 -26 -6 -17 -17
-17 -17 5 -10 16 5 21 4 17 -4 -10 -16 3 -13 21 5 13 13 18 13 25 2 6 -10 8
-8 6 6 -2 10 3 21 11 24 10 3 12 0 8 -12 -4 -9 -2 -16 3 -16 19 0 10 31 -12
40 -13 5 -17 9 -10 9 26 2 49 -21 44 -45 -3 -15 0 -24 8 -24 7 0 10 7 6 15 -4
12 -2 13 15 2 16 -10 21 -9 28 2 5 7 7 21 4 30 -3 12 3 17 23 19 15 1 36 9 46
19 10 9 18 12 18 7 0 -5 -9 -16 -20 -24 -11 -8 -20 -21 -21 -30 0 -10 -2 -11
-6 -2 -2 6 -12 12 -20 12 -14 0 -13 -3 3 -22 16 -17 16 -20 3 -15 -17 6 -39
-10 -39 -27 0 -6 5 -4 11 4 8 12 12 12 16 2 4 -9 8 -10 18 -2 9 8 15 8 20 0 3
-5 -1 -10 -9 -10 -9 0 -16 -6 -16 -12 0 -10 -3 -9 -9 1 -6 9 -11 10 -15 2 -9
-14 -46 -15 -46 -1 0 6 5 10 10 10 6 0 10 5 10 10 0 6 -8 5 -19 -2 -11 -7 -19
-14 -19 -17 2 -19 -5 -20 -26 -6 -20 14 -28 14 -45 3 -12 -7 -19 -18 -17 -25
3 -7 1 -15 -4 -18 -13 -8 -13 -25 1 -25 5 0 7 5 4 10 -4 6 5 10 19 10 14 0 26
4 26 8 0 5 15 8 33 7 17 -1 35 3 39 9 5 7 8 5 8 -6 0 -9 4 -19 9 -22 5 -4 7 4
3 16 -5 20 -4 21 18 5 22 -15 55 -13 44 4 -3 5 0 9 7 9 6 0 9 -8 6 -20 -3 -11
-1 -20 4 -20 4 0 6 -6 3 -13 -3 -8 -16 -12 -34 -9 -21 3 -27 8 -22 20 5 14 4
15 -10 2 -11 -11 -12 -17 -5 -22 9 -5 9 -15 0 -38 -6 -17 -7 -30 -2 -30 5 0
12 7 16 16 3 8 12 13 19 10 8 -3 14 -1 14 4 0 6 -7 10 -15 10 -8 0 -15 5 -15
10 0 13 16 13 41 0 15 -9 19 -7 19 5 0 8 9 23 19 32 11 9 18 20 15 25 -3 4 0
8 5 8 6 0 11 -8 11 -18 0 -10 5 -23 12 -30 9 -9 8 -12 -5 -12 -9 0 -17 4 -17
10 0 5 -7 7 -15 4 -11 -5 -13 -10 -5 -19 8 -9 7 -15 -2 -19 -7 -3 1 -3 17 -1
17 2 33 4 38 4 4 1 7 10 7 20 0 27 29 35 47 14 8 -10 12 -13 9 -7 -3 7 5 14
19 16 21 5 24 2 19 -17 -3 -13 1 -27 12 -36 16 -13 16 -12 6 8 -14 26 -6 54
14 46 20 -7 18 7 -3 23 -17 13 -17 14 0 8 10 -4 22 -15 28 -26 9 -16 8 -19 -2
-13 -8 6 -10 4 -4 -5 6 -10 11 -10 20 3 7 10 20 17 30 17 10 0 15 3 11 7 -4 4
13 13 36 20 27 8 46 9 52 3 13 -13 36 -13 36 0 0 6 -9 10 -19 10 -11 0 -22 4
-26 9 -3 6 10 7 32 4 42 -6 54 -13 36 -20 -16 -6 -17 -30 -1 -39 8 -5 9 -2 5
9 -3 10 -2 17 3 17 6 0 10 -4 10 -10 0 -5 9 -10 19 -10 11 0 22 -6 24 -12 7
-18 29 12 22 30 -3 7 0 10 6 7 5 -4 7 -16 3 -28 -6 -22 -6 -22 12 -2 11 11 30
21 44 23 13 1 28 8 32 15 6 9 11 7 19 -6 6 -9 14 -15 20 -12 5 4 9 2 9 -4 0
-6 -16 -9 -37 -8 -20 1 -38 -3 -40 -10 -3 -8 8 -10 31 -9 20 2 36 -1 36 -5 0
-5 -5 -9 -11 -9 -8 0 -8 -5 1 -15 17 -21 33 -19 25 4 -3 10 1 24 10 31 13 11
16 11 13 -1 -2 -8 3 -13 10 -11 14 2 14 -5 2 -33 l-9 -20 -1 20 -1 20 -8 -20
c-5 -11 -4 -23 1 -26 6 -4 -2 -7 -16 -7 -15 1 -29 4 -32 9 -3 5 3 6 13 2 14
-5 15 -3 6 7 -14 16 -36 3 -28 -17 4 -13 3 -14 -10 -3 -8 7 -12 17 -8 23 4 6
1 7 -6 3 -7 -5 -10 -15 -7 -23 4 -8 1 -11 -5 -8 -6 4 -8 13 -5 21 3 8 1 14 -4
14 -5 0 -11 10 -13 23 -3 16 -5 14 -6 -10 -1 -28 -4 -31 -23 -26 -13 3 -44 5
-70 4 -41 -1 -47 1 -42 17 5 15 4 15 -8 2 -7 -9 -22 -14 -33 -12 -16 2 -17 1
-5 -7 8 -6 11 -11 5 -12 -5 0 4 -5 20 -10 18 -5 31 -5 33 1 4 11 32 1 32 -11
0 -5 -5 -8 -12 -7 -7 2 -13 -7 -14 -20 -1 -12 4 -22 12 -22 8 0 11 6 7 17 -5
12 -2 15 10 10 13 -5 17 -1 17 16 0 16 3 18 9 8 7 -11 13 -11 32 0 22 11 23
11 10 -5 -11 -13 -12 -19 -2 -29 10 -9 11 -8 6 6 -4 10 -2 17 4 17 6 0 11 -7
11 -15 0 -9 11 -27 25 -41 28 -28 31 -36 13 -33 -29 3 -38 -2 -38 -22 0 -14
-5 -19 -14 -16 -10 4 -13 -1 -10 -16 2 -12 2 -16 -2 -9 -3 6 -11 9 -17 5 -7
-3 -9 -3 -5 2 10 11 -10 45 -27 45 -8 0 -15 -5 -15 -11 0 -5 4 -8 9 -4 5 3 12
1 16 -5 3 -5 -4 -10 -17 -10 -13 0 -31 0 -40 0 -42 1 -58 5 -58 17 0 6 -4 14
-9 17 -5 4 -6 -4 -3 -16 5 -22 5 -22 -11 -6 -9 9 -17 26 -17 37 0 14 -6 21
-17 20 -11 0 -13 -3 -5 -6 15 -6 16 -49 0 -59 -7 -5 -9 -2 -6 8 5 12 -1 15
-32 13 -25 -1 -41 3 -44 11 -3 8 -13 14 -21 14 -9 0 -13 -5 -10 -10 12 -20 24
-70 15 -65 -5 3 -11 -3 -13 -12 -4 -17 -5 -17 -6 0 -1 11 -8 17 -18 15 -10 -2
-17 2 -16 8 1 7 -6 10 -16 7 -13 -3 -23 3 -31 17 -15 29 -5 38 19 16 16 -15
19 -15 31 -1 11 13 10 18 -6 29 -14 10 -21 11 -26 3 -5 -8 -13 -5 -27 8 -12
10 -24 15 -27 12 -4 -4 1 -10 10 -13 14 -5 15 -9 4 -15 -10 -7 -11 -12 0 -29
15 -24 15 -30 2 -30 -6 0 -9 3 -8 8 1 4 -4 20 -11 37 -7 16 -10 37 -8 47 3 10
1 15 -5 12 -5 -4 -8 -19 -6 -34 3 -20 1 -27 -9 -23 -9 4 -11 0 -7 -11 3 -9 10
-14 14 -11 5 3 11 1 14 -4 10 -16 -40 -5 -65 14 l-24 17 23 -5 c20 -5 23 -2
19 14 -4 17 -3 18 9 8 17 -14 19 -3 2 15 -10 11 -15 10 -28 -4 -8 -9 -12 -11
-7 -4 7 11 2 14 -38 23 -5 1 -11 -3 -14 -10 -2 -7 1 -9 10 -4 11 6 11 5 2 -5
-13 -14 -37 -4 -27 12 4 6 1 8 -7 6 -8 -3 -13 -11 -11 -17 3 -16 -30 -14 -53
3 -19 13 -19 15 -3 33 16 18 16 19 -2 19 -10 0 -16 -4 -13 -9 3 -4 -3 -17 -13
-28 -11 -12 -13 -19 -5 -19 7 0 9 -5 5 -12 -5 -8 -2 -9 9 -5 9 3 19 1 23 -5 4
-7 3 -8 -4 -4 -6 4 -19 -5 -28 -19 -9 -14 -19 -23 -22 -21 -3 3 1 12 7 20 9
11 10 20 2 35 -8 15 -7 23 4 34 12 13 12 17 -3 30 -22 18 -51 18 -77 -1 -19
-14 -19 -14 7 -8 14 3 34 9 45 13 16 6 16 5 5 -10 -8 -9 -11 -21 -7 -27 11
-17 17 -67 6 -51 -5 7 -17 15 -27 16 -36 5 -63 17 -68 32 -7 17 36 63 59 63 8
0 15 5 15 11 0 8 4 8 13 0 10 -8 17 -7 25 1 9 9 12 9 12 -1 0 -11 3 -11 15 -1
12 10 18 8 35 -11 10 -13 19 -19 20 -12 0 6 -5 15 -12 19 -7 5 -4 10 10 15 12
5 22 13 22 18 0 7 -9 7 -25 1 -17 -7 -25 -6 -25 1 0 8 -5 7 -15 -1 -8 -7 -15
-8 -15 -3 0 9 -60 8 -102 -1 -9 -2 -19 2 -22 9 -3 8 -13 11 -27 8 -22 -6 -22
-6 5 -28 18 -14 25 -27 20 -38 -3 -9 -11 -14 -17 -10 -5 3 -7 1 -3 -5 3 -6 2
-13 -4 -17 -5 -3 -10 -1 -10 5 0 6 -4 8 -10 5 -6 -4 -5 -11 3 -19 6 -8 15 -12
20 -9 4 2 7 -1 7 -7 0 -6 11 -15 25 -20 14 -5 25 -17 26 -27 0 -11 3 -13 6 -5
2 6 12 12 21 11 11 0 12 -2 5 -6 -20 -7 -15 -23 5 -17 14 5 14 4 2 -5 -8 -5
-12 -12 -9 -15 6 -6 58 -16 97 -18 12 -1 21 -7 18 -12 -2 -6 -8 -10 -14 -9 -5
1 -9 -9 -9 -23 0 -21 2 -23 16 -12 9 7 20 18 24 23 4 6 5 -2 1 -17 -3 -16 -4
-28 0 -28 12 0 45 44 39 53 -3 5 -9 3 -14 -4 -7 -12 -9 -12 -9 0 0 7 -10 22
-22 32 -16 15 -17 19 -6 19 9 0 18 -6 21 -14 3 -8 23 -20 44 -27 33 -11 35
-13 18 -21 -16 -7 -15 -8 8 -5 17 3 27 0 27 -9 0 -9 -8 -10 -32 -3 -36 10 -41
8 -33 -12 3 -9 21 -15 46 -16 22 -1 38 1 35 5 -2 4 9 7 25 7 16 0 29 -4 29 -8
0 -5 5 -5 10 -2 16 10 12 -4 -10 -35 -17 -23 -17 -29 -5 -34 8 -3 17 -1 20 4
4 6 2 10 -4 10 -6 0 -8 7 -5 15 8 20 24 19 24 -1 0 -8 5 -12 10 -9 6 3 10 1
10 -6 0 -8 5 -7 17 2 15 12 16 12 10 -4 -4 -11 -3 -16 3 -12 6 3 10 1 10 -4 0
-6 7 -11 15 -11 8 0 14 3 14 8 -4 23 3 30 29 27 15 -2 31 -4 35 -4 5 -1 5 -11
2 -23 -4 -16 -4 -19 3 -9 8 11 12 10 21 -5 6 -11 11 -14 11 -7 0 6 -5 15 -10
18 -6 4 -8 11 -4 16 3 6 12 2 19 -8 11 -15 16 -16 27 -5 11 11 10 12 -4 7 -14
-6 -18 -2 -17 16 0 23 1 23 9 4 5 -11 9 -15 10 -10 0 6 7 1 15 -9 9 -12 15
-15 15 -7 0 9 4 10 13 3 6 -5 22 -8 34 -6 17 3 20 -1 17 -19 -4 -21 -4 -21 6
1 15 35 45 25 44 -15 -2 -30 -2 -31 18 -11 20 20 16 34 -18 63 -8 8 -7 14 4
25 14 13 15 12 9 -3 -3 -9 -2 -17 3 -17 6 0 10 -7 10 -16 0 -8 5 -12 10 -9 13
8 13 -21 -1 -46 -10 -20 -10 -20 15 -4 25 17 38 34 15 19 -7 -4 -10 -1 -7 6 5
16 36 22 44 9 8 -14 24 0 17 16 -7 19 11 20 26 2 6 -8 23 -12 41 -9 37 5 31
21 -7 16 -28 -4 -28 -4 -3 5 14 5 19 9 12 10 -7 1 -10 6 -7 11 4 6 12 5 20 -4
8 -8 23 -12 33 -9 26 6 37 -33 14 -47 -15 -9 -15 -10 3 -8 13 2 24 15 31 38
11 33 12 34 13 8 1 -16 7 -28 14 -28 8 0 7 -4 -3 -10 -12 -8 -11 -10 7 -10 12
0 24 3 27 8 7 11 -20 43 -29 34 -5 -4 -5 -1 -1 6 10 17 26 15 26 -3 0 -9 7
-15 17 -13 10 2 19 -4 21 -14 2 -13 -3 -18 -17 -18 -11 0 -23 -5 -27 -12 -5
-7 -2 -9 9 -5 9 3 18 0 21 -9 3 -7 0 -13 -6 -11 -15 3 -19 -53 -5 -70 11 -15
31 -18 23 -4 -4 5 0 12 6 15 7 3 4 4 -8 1 -17 -4 -21 -1 -21 23 0 24 4 28 20
24 16 -4 19 -1 14 11 -4 12 -1 17 11 17 13 0 14 2 4 8 -7 5 -10 16 -7 24 4 9
-1 21 -12 29 -11 8 -23 21 -28 29 -5 9 1 7 15 -5 22 -19 23 -19 16 -1 -5 16
-4 17 9 6 9 -7 12 -16 8 -19 -4 -3 4 -18 19 -32 20 -20 28 -23 32 -13 3 7 -5
20 -16 28 -12 9 -19 19 -15 23 4 4 15 -4 24 -17 15 -22 17 -22 29 -5 12 16 14
17 20 2 3 -9 10 -14 15 -11 5 3 6 -2 3 -11 -6 -14 -8 -14 -19 1 -10 14 -13 15
-21 3 -10 -16 -13 -79 -3 -79 12 0 18 27 12 52 -4 18 -3 20 6 8 6 -8 11 -23
11 -32 0 -10 5 -18 10 -18 6 0 10 -9 10 -20 0 -11 -5 -20 -11 -20 -5 0 -7 5
-4 10 12 20 -6 28 -32 15 -15 -8 -31 -11 -37 -7 -6 3 -22 8 -36 10 -25 3 -25
3 -5 -16 14 -13 22 -16 27 -8 6 8 8 8 8 -1 0 -6 -4 -14 -9 -17 -5 -3 -7 -16
-5 -29 4 -20 3 -20 -7 3 -10 21 -13 22 -16 8 -5 -20 -63 -26 -63 -7 0 5 6 7
13 3 6 -4 8 -3 4 1 -4 5 -14 10 -22 11 -11 2 -12 -3 -5 -22 8 -19 6 -24 -6
-24 -11 0 -14 6 -9 23 5 17 4 18 -4 7 -5 -8 -13 -12 -16 -8 -3 3 7 16 22 28
18 15 23 24 16 27 -7 3 -13 12 -13 21 0 15 2 15 10 2 7 -12 9 -10 7 8 -2 28
-13 28 -28 1 -11 -21 -12 -21 -26 10 -20 40 -34 30 -28 -19 4 -26 1 -40 -6
-40 -8 0 -7 -5 1 -15 11 -13 15 -13 21 -3 7 10 9 9 9 -4 0 -10 -4 -19 -10 -19
-5 -1 -14 -2 -19 -3 -13 -2 -26 -16 -15 -16 5 0 10 -9 11 -21 2 -17 -1 -18
-12 -9 -8 7 -17 20 -20 30 -4 12 -12 17 -21 13 -8 -3 -20 -1 -27 4 -6 5 -37 9
-67 8 -36 -2 -61 2 -71 12 -14 12 -17 12 -22 -2 -8 -20 -23 -19 -47 5 -11 11
-20 15 -20 10 0 -7 -6 -7 -20 0 -11 6 -20 9 -20 6 0 -3 23 -17 51 -31 49 -24
52 -24 65 -8 10 13 14 14 12 3 -2 -10 7 -14 30 -15 37 0 83 -42 61 -55 -16
-10 38 -22 64 -15 17 5 19 4 7 -4 -8 -6 -23 -11 -33 -11 -14 0 -17 -5 -11 -22
6 -21 4 -20 -15 4 -15 19 -32 28 -52 28 -16 0 -29 5 -29 12 0 8 -7 6 -17 -5
-15 -14 -15 -19 -5 -26 11 -6 9 -9 -6 -13 -15 -4 -18 -1 -15 13 4 14 0 19 -18
20 -13 1 -28 1 -33 0 -4 -1 -14 4 -22 10 -8 7 -18 9 -21 5 -4 -4 -1 -11 7 -16
24 -16 -5 -11 -36 5 -16 8 -56 15 -89 15 -88 1 -94 2 -88 17 6 16 -9 17 -26 0
-10 -10 -11 -9 -6 4 4 11 0 18 -14 22 -14 3 -18 1 -14 -9 6 -17 -4 -18 -22 -1
-34 30 -43 35 -49 30 -3 -4 -12 2 -20 12 -8 12 -18 15 -27 10 -11 -6 -12 -5
-1 6 6 7 12 18 12 23 0 6 -4 5 -9 -3 -5 -7 -14 -10 -20 -7 -6 4 -9 12 -6 17 4
5 4 9 0 9 -3 0 -10 -10 -15 -22 -7 -19 -9 -20 -9 -4 -1 11 -6 16 -15 13 -8 -3
-17 -1 -20 6 -3 9 -7 8 -14 -2 -7 -10 -11 -10 -17 -1 -4 7 -1 16 6 22 10 7 7
7 -8 3 -23 -6 -33 10 -11 17 9 3 9 6 0 12 -7 4 -12 2 -12 -3 0 -6 -9 -11 -21
-11 -13 0 -18 4 -13 12 5 7 2 9 -9 5 -11 -4 -25 5 -43 26 l-27 32 7 -27 c8
-34 -5 -37 -19 -6 -12 26 -49 39 -39 14 3 -9 2 -16 -4 -16 -5 0 -13 7 -16 16
-4 11 -14 15 -31 12 -14 -3 -25 -1 -25 3 0 5 7 9 15 9 8 0 15 8 14 18 0 10 -3
12 -6 4 -2 -6 -9 -10 -13 -7 -5 3 -20 -4 -33 -15 -21 -18 -23 -26 -17 -61 4
-22 4 -42 -1 -44 -12 -8 -16 6 -18 53 -2 69 -3 76 -13 89 -5 7 -7 16 -4 22 3
5 -3 7 -14 4 -11 -3 -20 0 -20 6 0 6 -15 11 -33 11 -18 0 -38 5 -45 12 -9 9
-12 9 -12 0 0 -7 -6 -12 -12 -10 -26 6 -22 -16 4 -23 17 -4 28 -3 31 4 4 12
27 1 27 -14 0 -6 -4 -7 -10 -4 -5 3 -10 -3 -10 -14 0 -12 5 -21 11 -21 5 0 8
4 4 9 -3 5 0 13 6 16 5 4 8 13 5 21 -7 18 11 18 21 0 4 -8 17 -15 27 -17 25
-5 31 -25 10 -33 -12 -4 -15 -2 -10 9 3 9 0 15 -9 15 -8 0 -18 0 -22 1 -4 0
-9 -4 -11 -10 -2 -6 3 -11 12 -11 9 0 16 -4 16 -8 0 -4 -14 -7 -32 -7 -28 1
-37 8 -55 43 -3 6 -43 -19 -42 -26 3 -20 -3 -32 -16 -32 -8 0 -15 5 -15 10 0
6 4 10 9 10 5 0 8 8 6 18 -1 9 -9 16 -19 14 -9 -2 -16 2 -16 8 0 5 -5 10 -11
10 -6 0 -9 -7 -6 -14 4 -10 1 -13 -9 -9 -10 4 -12 9 -4 18 5 6 6 16 2 20 -4 5
1 5 11 2 9 -4 17 -2 17 3 0 6 -6 10 -14 10 -7 0 -19 7 -26 15 -10 12 -10 18 0
30 10 12 9 15 -4 15 -10 0 -14 -5 -10 -11 4 -7 1 -10 -7 -7 -8 3 -13 11 -11
17 1 6 -2 11 -8 11 -5 0 -10 -5 -10 -11 0 -5 -4 -7 -10 -4 -25 15 -7 -12 19
-30 42 -27 31 -30 -15 -4 -50 27 -51 28 -34 40 13 8 13 10 0 19 -21 14 -30 12
-24 -4 3 -8 1 -17 -5 -21 -15 -8 -14 -21 2 -37 16 -17 57 -75 57 -81 0 -3 -7
-7 -14 -10 -9 -4 -13 -1 -10 7 3 7 -4 21 -16 31 -11 10 -20 13 -20 7 0 -6 5
-14 12 -18 7 -5 4 -10 -10 -15 -12 -5 -22 -16 -22 -25 0 -14 2 -14 16 -3 14
11 15 10 12 -7 -2 -13 2 -18 15 -16 24 4 22 -14 -3 -21 -12 -3 -20 0 -20 8 0
7 -8 12 -17 11 -10 0 -17 5 -15 12 2 14 -14 16 -23 2 -3 -5 -15 -10 -26 -10
-16 0 -19 -5 -14 -19 3 -11 0 -23 -6 -27 -9 -5 -10 -2 -6 9 4 11 2 14 -9 10
-24 -9 -15 11 14 30 26 18 26 18 3 13 -13 -3 -33 0 -44 5 -13 8 -22 8 -29 1
-7 -7 -19 -3 -37 14 -29 27 -51 31 -51 9 0 -9 10 -15 23 -16 16 -1 18 -2 5 -6
-10 -2 -18 -8 -18 -11 0 -12 69 -52 87 -52 12 0 18 -8 19 -25 1 -14 -2 -25 -6
-25 -4 0 -10 -10 -13 -22 -5 -18 -8 -19 -22 -8 -13 10 -18 11 -24 2 -10 -17
-91 -13 -91 5 0 14 0 14 -52 18 -62 4 -71 11 -64 47 4 20 3 29 -3 23 -5 -6
-11 -18 -13 -28 -3 -18 -5 -17 -33 4 -16 13 -26 18 -22 12 4 -6 2 -13 -4 -15
-5 -2 -7 -11 -3 -21 4 -12 13 -16 26 -11 20 6 48 -11 48 -29 0 -6 -16 -7 -40
-3 -35 5 -39 4 -34 -11 5 -16 4 -16 -10 1 -10 12 -21 16 -33 11 -15 -6 -15 -8
-3 -12 8 -3 22 -7 30 -10 29 -11 45 -14 84 -14 21 1 45 -4 52 -10 20 -17 175
-49 168 -35 -3 6 2 2 10 -8 9 -11 16 -24 16 -29 0 -4 5 -5 11 -2 6 4 8 13 5
21 -4 11 -1 12 13 4 11 -5 21 -13 23 -17 3 -5 4 -3 2 3 -1 7 8 9 24 6 15 -3
22 -7 15 -9 -7 -2 -9 -11 -6 -20 4 -11 2 -14 -5 -9 -6 3 -16 -3 -22 -14 -11
-21 -37 -22 -32 -1 1 6 -5 11 -13 11 -7 0 -19 8 -24 18 -6 9 -11 12 -11 6 0
-15 47 -69 63 -70 18 -1 64 -22 52 -24 -49 -7 -61 -5 -73 12 -10 14 -21 18
-41 13 -15 -3 -39 -2 -52 4 -17 6 -30 5 -42 -4 -16 -11 -16 -13 -2 -19 9 -3
14 -2 11 3 -3 5 5 9 19 9 13 -1 24 -3 23 -7 -4 -32 4 -61 17 -61 18 0 19 12 3
28 -9 9 -9 12 2 12 13 0 13 2 0 10 -10 7 -11 10 -2 10 15 0 22 -15 26 -56 2
-16 4 -32 5 -36 0 -4 8 -5 16 -2 8 4 15 2 15 -4 0 -5 7 -12 15 -15 11 -5 13 1
10 26 l-5 32 11 -27 c6 -16 15 -28 20 -28 4 0 6 7 3 15 -5 11 1 15 20 15 29 0
33 9 14 29 -11 12 -10 13 6 7 17 -6 17 -5 5 10 -13 16 -11 17 16 10 17 -4 31
-11 33 -16 2 -5 15 -5 29 1 19 7 28 6 34 -3 5 -8 1 -15 -11 -20 -11 -4 -20
-10 -20 -12 0 -3 7 -3 15 0 8 4 23 0 33 -7 15 -13 16 -12 3 3 -7 10 -9 18 -3
18 5 0 8 10 5 23 -3 16 -2 18 5 8 8 -11 10 -11 14 0 3 9 6 8 11 -5 4 -10 3
-15 -3 -11 -6 3 -10 1 -10 -5 0 -7 7 -9 16 -6 9 3 17 6 19 6 2 0 -9 24 -24 53
l-26 52 -53 -1 c-28 -1 -52 2 -52 6 0 11 60 21 74 13 12 -8 32 -13 54 -15 7
-1 10 -8 8 -15 -4 -9 0 -13 12 -11 22 3 42 -9 38 -25 -1 -7 -1 -9 1 -5 3 5 13
3 24 -2 12 -7 19 -7 19 -1 0 5 -9 13 -20 16 -11 3 -25 16 -31 27 -9 17 -13 18
-20 7 -6 -10 -9 -8 -9 10 0 23 1 23 25 7 30 -20 33 -7 5 19 -21 19 -27 45 -9
45 5 0 7 -4 4 -10 -3 -5 0 -7 8 -4 10 3 17 -4 21 -20 7 -27 20 -34 31 -16 8
13 42 13 50 -1 11 -17 -3 -23 -20 -9 -13 11 -14 10 -9 -5 5 -13 4 -16 -4 -11
-13 8 -16 -2 -13 -52 2 -31 0 -32 -21 -22 l-23 11 23 -17 c12 -9 22 -20 22
-25 0 -26 -65 25 -72 56 -3 17 -5 15 -10 -7 -4 -20 -1 -28 9 -28 8 0 11 -4 8
-10 -4 -6 1 -7 11 -3 12 4 15 3 10 -5 -6 -11 5 -17 27 -13 4 0 7 -3 7 -9 0 -5
-6 -10 -12 -10 -7 0 -5 -5 5 -11 9 -5 17 -20 16 -32 l0 -22 -9 22 c-9 22 -18
24 -82 14 -5 0 -8 -5 -8 -10 0 -5 8 -7 19 -4 10 3 22 0 25 -6 4 -5 14 -7 24
-4 15 6 15 5 -1 -12 -11 -11 -15 -20 -8 -24 6 -4 7 -12 1 -21 -8 -13 -13 -11
-32 8 -16 16 -18 21 -7 17 10 -4 20 -2 24 4 4 7 -4 11 -19 11 -35 0 -39 -13
-15 -44 11 -14 16 -26 11 -26 -6 0 -13 7 -16 16 -4 10 -16 14 -33 13 -16 -2
-29 1 -29 6 -1 6 2 9 7 8 4 -2 6 4 3 12 -7 17 -32 19 -54 5 -11 -8 -7 -9 14
-4 26 6 28 5 16 -8 -15 -15 -50 -13 -50 4 0 5 -4 7 -9 4 -5 -4 -32 0 -60 7
-41 10 -49 15 -38 26 10 10 7 10 -15 0 -24 -10 -31 -10 -46 4 -22 20 -83 27
-89 10 -4 -11 13 -20 59 -28 44 -9 78 -28 78 -44 0 -13 2 -13 9 -3 7 12 14 11
40 -2 17 -9 29 -21 26 -26 -3 -5 3 -7 14 -5 15 3 19 -1 16 -16 -2 -10 1 -22 7
-25 7 -4 8 -2 4 4 -4 7 -4 12 0 12 9 0 82 -49 102 -68 16 -14 22 -15 42 -2 12
8 11 10 -6 10 -11 0 -36 14 -54 30 -18 17 -40 30 -47 30 -7 0 -13 5 -13 10 0
12 13 13 24 3 4 -5 11 -8 14 -9 40 -5 152 -51 152 -63 0 -4 6 -15 13 -25 12
-16 17 -17 36 -6 19 10 22 9 19 -1 -2 -7 -12 -17 -21 -23 -12 -8 -20 -5 -34
10 -10 12 -24 19 -31 17 -8 -3 -10 1 -5 13 6 16 5 17 -9 4 -16 -15 -13 -44 3
-34 5 3 6 -3 2 -12 -4 -10 -2 -15 3 -11 6 3 16 2 24 -4 12 -7 11 -9 -5 -9 -18
-1 -19 -1 -2 -11 20 -12 23 -31 3 -23 -7 3 -19 17 -26 32 -10 20 -14 23 -17
11 -2 -9 -14 -21 -26 -26 -21 -10 -20 -10 8 -10 16 0 31 -6 33 -12 2 -6 7 -9
11 -7 4 3 12 1 19 -3 9 -5 8 -12 -4 -27 -8 -10 -12 -13 -9 -6 5 9 1 12 -11 10
-10 -2 -19 2 -19 9 0 18 -15 28 -15 10 0 -10 -5 -14 -15 -11 -8 4 -12 11 -8
17 4 6 -2 8 -15 5 -12 -4 -22 -2 -22 3 0 5 6 9 13 9 6 1 2 6 -11 13 -12 7 -19
17 -15 22 4 4 0 5 -9 2 -9 -3 -19 -1 -22 6 -3 7 -5 4 -3 -6 1 -10 6 -17 11
-17 9 2 26 -19 26 -33 0 -5 -4 -5 -10 -2 -5 3 -10 1 -10 -5 0 -6 11 -10 26 -8
24 3 27 -1 29 -30 3 -32 2 -33 -21 -17 -13 8 -30 15 -37 15 -8 0 -93 30 -188
66 -206 78 -250 95 -434 164 -77 28 -149 56 -160 61 -11 4 -63 25 -115 45 -52
20 -122 46 -155 59 -123 48 -198 75 -206 75 -5 0 -9 -5 -9 -12 0 -6 3 -8 7 -5
3 4 13 -2 21 -14 8 -11 20 -18 28 -15 7 3 16 0 20 -6 5 -7 2 -8 -6 -3 -10 6
-12 4 -7 -9 5 -14 3 -17 -8 -13 -8 4 -17 2 -20 -3 -4 -6 1 -10 10 -10 9 0 15
-7 13 -17 -3 -17 35 -34 60 -25 17 6 15 22 -4 22 -9 0 -14 5 -12 12 6 18 22
20 43 3 17 -13 18 -16 5 -25 -13 -8 -12 -10 3 -10 9 0 23 -11 29 -25 6 -14 17
-25 25 -25 7 0 13 -5 13 -10 0 -6 8 -5 19 2 16 10 25 9 45 -1 14 -8 23 -18 19
-24 -4 -6 4 -7 20 -3 32 8 57 -1 57 -21 0 -10 6 -12 21 -8 12 4 19 3 16 -2 -3
-5 10 -9 28 -9 22 0 36 6 39 16 3 8 4 0 2 -18 -1 -18 1 -35 6 -38 4 -3 9 7 9
23 2 23 2 24 6 6 4 -22 13 -27 40 -24 20 3 53 -18 50 -32 -1 -8 9 -11 31 -9
37 2 73 -13 69 -29 -1 -6 8 -15 21 -20 13 -5 21 -5 18 -1 -3 5 -2 21 2 36 l8
28 19 -22 c12 -13 14 -20 6 -18 -7 2 -15 -2 -18 -8 -2 -6 10 -14 27 -17 18 -4
30 -13 30 -22 0 -8 4 -15 10 -15 5 0 6 7 3 17 -4 11 -3 14 5 9 7 -4 12 -15 12
-25 0 -10 3 -20 6 -24 10 -10 34 4 27 16 -4 7 0 8 11 4 10 -4 23 -7 29 -7 7 0
18 -4 26 -9 13 -8 13 -12 0 -27 -8 -10 -9 -15 -2 -11 7 5 24 1 37 -8 14 -9 30
-14 36 -10 15 9 60 -3 60 -15 0 -6 -6 -10 -12 -10 -7 0 -14 -12 -14 -28 -1
-15 1 -21 3 -14 3 6 9 10 14 7 5 -4 6 0 3 8 -4 12 7 14 60 13 52 -2 66 1 70
13 3 9 4 -2 3 -24 -2 -32 2 -40 17 -43 10 -2 23 2 28 10 8 10 9 9 4 -4 -3 -12
0 -18 10 -18 9 0 12 5 8 12 -4 7 -3 8 5 4 6 -4 9 -11 6 -15 -7 -12 -55 -20
-55 -10 0 5 -4 9 -10 9 -6 0 -6 -9 0 -26 13 -34 14 -33 -15 -28 -14 2 -25 0
-25 -6 0 -6 5 -8 10 -5 6 3 10 2 10 -3 0 -17 30 -22 51 -9 13 8 18 19 15 32
-4 17 -3 18 7 4 7 -9 19 -18 27 -22 13 -4 12 -6 -1 -6 -21 -1 -29 -20 -18 -46
4 -11 8 -15 8 -9 1 7 15 11 33 10 25 -1 34 -7 39 -26 6 -21 7 -22 9 -5 1 19 2
19 12 -3 16 -33 35 -26 29 11 -1 5 3 6 9 2 6 -3 7 -11 4 -17 -5 -7 -1 -9 9 -5
20 7 47 -1 47 -14 0 -5 -6 -9 -14 -9 -15 0 -31 -64 -20 -81 3 -6 -3 -13 -15
-16 -11 -3 -19 -9 -16 -13 3 -4 -5 -11 -18 -15 -15 -4 -18 -8 -9 -12 8 -3 19
0 25 6 15 15 27 14 27 -4 0 -8 5 -15 10 -15 6 0 10 4 10 10 0 5 7 6 17 3 11
-4 14 -3 9 5 -4 7 -5 12 -1 12 3 0 10 -12 15 -26 7 -19 16 -25 33 -22 15 2 21
9 19 21 -3 15 6 19 36 16 9 -1 3 -32 -9 -40 -5 -3 1 -14 13 -24 13 -11 17 -13
11 -5 -17 18 -16 25 3 45 15 14 14 18 -9 41 -15 14 -30 23 -35 20 -6 -3 -12 1
-15 9 -5 11 -1 12 19 5 33 -13 34 -13 34 4 0 9 11 13 35 13 19 -1 35 -5 35
-10 0 -5 6 -4 14 2 8 7 17 8 20 3 3 -5 20 -12 37 -16 25 -5 30 -10 26 -26 -3
-11 -1 -20 4 -20 5 0 9 8 9 18 0 10 6 19 13 19 8 0 11 -13 8 -40 -2 -29 0 -38
9 -32 7 4 9 18 6 34 l-6 26 15 -27 c9 -16 18 -28 20 -28 2 0 27 20 54 44 47
41 53 44 83 35 18 -5 34 -9 36 -9 1 0 -12 -15 -30 -33 -30 -29 -35 -31 -50
-18 -12 9 -18 10 -18 3 0 -7 5 -12 10 -12 18 0 11 -18 -9 -25 -11 -3 -18 -11
-15 -18 5 -14 94 -57 117 -57 8 0 20 -7 27 -15 17 -21 7 -19 -58 11 -31 14
-75 33 -97 42 -22 8 -47 21 -55 28 -13 11 -15 7 -16 -26 -1 -22 1 -39 5 -38 3
1 16 -3 29 -10 16 -9 21 -19 17 -32 -5 -16 -1 -18 29 -15 20 2 41 7 47 11 23
14 3 -19 -21 -35 -14 -10 -21 -11 -16 -3 4 7 2 12 -8 12 -12 0 -12 -5 -3 -30
15 -40 0 -56 -36 -39 -29 13 -37 49 -11 49 10 0 14 -6 11 -14 -5 -14 10 -36
25 -36 4 0 8 5 8 10 0 6 -6 9 -12 8 -8 -2 -12 6 -10 20 2 15 -2 22 -14 22 -11
0 -15 6 -11 19 5 22 -26 57 -42 46 -7 -3 -8 0 -5 9 4 10 1 16 -7 16 -8 0 -7 5
5 13 10 7 15 19 11 29 -7 18 -35 33 -35 19 0 -5 7 -11 15 -15 8 -3 15 -11 15
-17 0 -8 -4 -8 -15 1 -13 11 -14 10 -10 -3 4 -8 2 -18 -4 -22 -6 -3 -11 1 -11
10 0 9 -7 27 -16 40 -9 13 -13 28 -10 34 3 5 -3 7 -14 4 -11 -3 -20 0 -20 6 0
6 9 11 20 11 27 0 25 13 -5 27 -14 6 -25 7 -25 2 0 -5 -5 -9 -11 -9 -5 0 -7 5
-3 12 5 7 3 8 -6 3 -7 -4 -15 -3 -19 3 -3 6 -16 -14 -28 -44 -12 -30 -17 -52
-12 -48 10 6 13 -49 3 -59 -4 -3 -16 -1 -28 5 -20 10 -20 10 -5 -8 9 -10 15
-27 14 -36 -2 -10 1 -18 6 -18 6 0 5 -8 -1 -20 -8 -15 -17 -19 -35 -14 -14 3
-25 2 -25 -2 0 -9 119 -51 133 -46 4 1 7 -2 7 -8 0 -5 5 -10 10 -10 6 0 10 10
10 21 0 19 2 20 17 8 15 -12 16 -12 10 4 -4 10 -7 21 -7 23 0 2 -9 4 -20 4
-14 0 -18 -5 -13 -17 5 -13 3 -15 -13 -8 -10 4 -29 7 -41 6 -16 0 -23 5 -23
17 0 14 2 15 10 2 7 -11 10 -11 10 -2 0 7 13 27 29 45 23 23 27 34 19 44 -8
10 -6 13 8 13 16 0 16 2 4 9 -8 6 -19 7 -25 4 -5 -3 -1 3 10 14 19 19 20 19
27 1 4 -10 10 -18 13 -18 4 0 4 4 1 9 -3 5 1 14 8 20 10 8 16 9 21 1 3 -5 0
-10 -8 -10 -18 0 -16 -65 2 -83 10 -9 11 -4 7 26 -5 34 -4 36 13 26 16 -11 17
-15 5 -38 -18 -35 -18 -51 1 -24 18 26 47 34 63 17 10 -11 9 -13 -10 -11 -18
2 -23 -4 -24 -26 -2 -15 1 -25 7 -22 5 4 9 14 9 23 0 12 3 13 12 4 12 -12 -5
-42 -25 -42 -6 0 -18 -7 -28 -16 -18 -17 -22 -2 -6 24 5 6 5 12 0 12 -14 0
-43 -61 -44 -93 -1 -24 -3 -26 -6 -10 -2 13 -7 23 -11 24 -29 3 -46 9 -52 19
-5 9 -9 9 -14 1 -4 -6 -2 -11 3 -11 6 0 11 -5 11 -11 0 -7 -10 -5 -25 5 -13 9
-28 16 -32 16 -4 0 5 -9 21 -19 17 -11 33 -18 38 -15 4 3 8 0 8 -7 0 -8 4 -8
15 1 9 7 15 8 15 2 0 -5 -7 -12 -15 -16 -15 -6 -10 -36 7 -36 5 0 7 4 4 8 -3
5 9 6 25 4 17 -3 33 -11 36 -18 3 -8 12 -14 20 -14 8 0 11 -5 7 -11 -4 -8 -9
-8 -17 0 -6 6 -19 11 -29 11 -10 0 -18 5 -18 11 0 6 -6 9 -12 7 -7 -3 -13 -11
-13 -19 0 -9 -11 -14 -33 -13 -17 0 -32 -3 -32 -8 0 -4 7 -8 16 -8 8 0 13 -4
10 -8 -10 -16 13 -36 44 -38 l32 -2 -20 21 c-17 18 -18 24 -7 34 10 10 14 9
19 -3 4 -10 13 -14 22 -10 9 3 12 2 9 -5 -4 -6 -14 -8 -24 -4 -14 5 -14 4 2
-12 16 -16 16 -18 -5 -31 -16 -9 -17 -12 -4 -8 13 5 17 2 12 -9 -3 -10 5 -20
24 -30 17 -9 30 -12 30 -8 0 5 7 -1 15 -11 8 -11 18 -17 21 -13 3 3 24 -5 45
-19 21 -13 43 -24 49 -24 6 0 28 -11 49 -24 49 -31 84 -32 70 -1 -9 18 -8 18
9 -2 20 -22 24 -23 266 -23 152 0 246 4 246 10 0 6 5 10 11 10 5 0 8 -4 5 -9
-3 -5 38 -9 93 -10 88 -1 100 1 104 16 4 16 5 16 6 1 1 -16 27 -17 318 -17
235 0 320 3 332 12 12 9 13 9 7 0 -6 -10 542 -13 2723 -13 l2731 0 0 5400 0
5400 -2865 0 c-2852 0 -2866 0 -2887 -20 -12 -11 -26 -20 -31 -20 -5 0 -11 9
-14 20 -4 16 -14 20 -44 20 -32 0 -39 -3 -39 -20 0 -11 -6 -20 -14 -20 -7 0
-27 -3 -44 -6 -28 -6 -29 -4 -25 20 l5 26 -585 0 c-453 0 -587 -3 -590 -13 -4
-9 -7 -9 -18 1 -18 17 -38 15 -46 -4z m3173 -2854 c0 -11 -4 -20 -9 -20 -4 0
-5 -5 -1 -11 4 -8 9 -7 15 2 4 7 6 16 3 20 -2 4 5 7 16 6 17 -1 18 -4 8 -12
-7 -5 -14 -17 -16 -25 -2 -8 -8 -16 -13 -18 -5 -2 -9 -8 -9 -13 0 -6 5 -7 10
-4 6 3 10 2 10 -3 0 -5 -15 -9 -34 -10 -58 -2 -76 -11 -76 -37 0 -5 4 -4 9 3
7 11 9 11 14 -2 4 -9 3 -15 -1 -14 -4 1 -17 -3 -29 -10 -13 -7 -23 -10 -23 -7
0 3 -12 -1 -27 -8 -39 -20 -77 -31 -70 -20 3 5 -3 9 -13 9 -15 0 -17 -3 -7
-15 10 -12 5 -13 -35 -9 -37 4 -52 1 -69 -13 -19 -17 -24 -17 -42 -4 -12 8
-29 15 -39 15 -10 0 -18 4 -18 9 0 4 -12 7 -27 5 -15 -1 -34 3 -42 9 -10 8
-13 8 -8 1 4 -7 0 -17 -8 -24 -8 -7 -15 -9 -15 -5 0 4 -7 2 -16 -6 -8 -7 -39
-13 -68 -14 -39 -1 -60 -7 -76 -23 -13 -12 -52 -31 -87 -43 -41 -13 -61 -25
-57 -32 5 -8 2 -8 -7 1 -7 6 -32 12 -55 12 -26 0 -57 9 -78 21 -30 18 -46 20
-99 15 -38 -3 -66 -11 -73 -21 -12 -16 -49 -22 -40 -6 4 5 -3 7 -14 4 -14 -4
-20 0 -20 12 0 15 -2 16 -17 4 -15 -13 -15 -12 -3 11 12 23 12 24 -3 11 -10
-8 -24 -10 -34 -6 -10 4 -29 9 -43 11 -21 2 -25 -1 -25 -21 0 -30 3 -31 21 -7
12 15 13 15 8 0 -4 -13 -1 -15 14 -11 11 3 29 0 39 -7 16 -10 16 -10 -4 -5
-13 4 -28 3 -35 -2 -7 -4 -24 -9 -38 -11 -13 -2 -28 -9 -32 -15 -5 -7 -8 -8
-8 -1 0 5 5 15 11 21 9 9 6 10 -11 6 -16 -4 -21 -3 -16 5 4 7 16 12 27 12 21
0 22 1 13 24 -3 8 -13 12 -22 9 -14 -4 -14 -3 -3 5 8 6 33 11 55 12 65 2 91 6
105 15 9 5 17 2 23 -9 8 -13 13 -14 31 -4 22 12 35 16 72 21 12 2 26 7 33 11
16 10 15 -6 0 -23 -7 -8 -1 -6 15 4 20 13 27 14 27 4 0 -8 6 -5 15 7 8 11 15
14 15 7 0 -7 5 -13 11 -13 5 0 7 6 3 13 -6 9 -4 9 8 -1 13 -10 17 -10 21 1 4
12 37 17 124 21 11 1 19 4 16 9 -2 4 7 7 21 7 14 0 26 6 27 13 0 8 2 8 5 1 3
-7 17 -9 37 -5 23 5 35 3 43 -7 9 -12 12 -13 19 -2 5 9 4 11 -3 6 -18 -11 -14
0 5 15 11 10 14 10 9 2 -4 -8 -1 -13 8 -13 9 0 16 5 16 11 0 7 7 8 18 4 9 -4
23 -7 30 -6 35 3 41 5 37 12 -3 4 2 9 10 13 8 3 15 0 15 -7 1 -7 6 -4 14 6 8
10 20 15 29 11 8 -3 28 3 43 13 21 13 26 14 19 3 -7 -12 -6 -13 7 -3 8 7 17
10 21 7 3 -3 17 2 31 11 14 10 26 14 26 11 0 -4 9 -2 19 4 14 7 21 6 24 -3 3
-6 6 -3 6 8 1 14 4 16 9 7 7 -9 21 -8 68 8 68 22 78 24 69 10 -4 -6 -11 -7
-17 -4 -6 4 -8 2 -5 -4 11 -16 47 -2 47 19 0 11 4 19 10 19 5 0 7 -8 4 -17 -5
-17 -5 -17 9 0 8 9 23 17 33 17 10 0 28 7 38 15 11 8 20 15 21 15 0 0 1 -9 1
-20z m-2617 -337 c-12 -15 -12 -16 4 -10 11 4 16 3 12 -3 -3 -6 1 -10 9 -10
10 0 13 -6 10 -15 -4 -8 -2 -15 4 -15 6 0 8 -9 5 -20 -5 -17 -27 -26 -55 -21
-4 0 -11 -11 -14 -27 -4 -15 -14 -33 -23 -41 -13 -11 -13 -13 -1 -9 10 4 20
-3 27 -18 13 -28 -1 -33 -16 -6 -6 9 -11 11 -11 5 0 -7 -8 -13 -17 -13 -10 0
-29 -17 -43 -37 -32 -48 -110 -136 -110 -125 0 5 11 19 25 32 14 13 25 28 25
32 0 5 12 25 26 44 15 20 21 34 14 34 -10 0 -10 3 -1 14 9 11 9 15 -1 19 -7 3
-2 6 12 7 l25 2 -25 8 c-21 7 -22 8 -5 9 11 1 28 8 38 15 15 12 16 18 7 35 -6
12 -18 20 -28 20 -16 -1 -16 -2 1 -6 9 -2 17 -9 17 -14 0 -12 -61 -11 -80 1
-13 8 -13 10 2 10 11 0 15 5 12 15 -4 10 6 20 33 32 21 10 48 28 61 41 24 23
38 29 27 12 -10 -16 11 -12 25 5 7 8 15 15 17 15 3 0 -1 -8 -8 -17z m-1006
-535 c7 -22 -4 -47 -19 -41 -8 3 -14 0 -14 -6 0 -6 4 -11 9 -11 5 0 17 -3 27
-7 11 -4 15 -3 10 5 -3 6 -2 13 4 17 5 3 10 0 11 -7 0 -7 4 -4 9 7 8 18 9 18
9 2 1 -28 21 -9 22 21 1 21 2 23 6 7 3 -11 12 -29 20 -40 11 -15 14 -15 10 -3
-4 12 2 19 23 27 28 9 30 8 40 -27 12 -46 12 -75 -1 -44 -10 27 -33 19 -24 -9
4 -11 2 -19 -4 -19 -6 0 -11 6 -11 13 0 9 -2 9 -9 -1 -7 -11 -9 -10 -15 3 -5
15 -7 15 -22 1 -8 -9 -19 -16 -24 -16 -14 0 -21 33 -8 42 15 9 6 11 -15 2 -9
-3 -13 -15 -10 -32 3 -23 2 -24 -6 -7 -9 20 -10 20 -10 -1 -1 -18 -7 -21 -41
-20 -29 0 -40 5 -40 16 0 9 -9 16 -21 17 -26 2 -33 8 -24 23 5 8 11 8 21 -1 8
-6 14 -8 14 -4 0 4 7 2 15 -5 9 -7 18 -10 22 -6 3 3 1 6 -5 6 -22 0 -12 20 11
21 12 0 16 3 10 6 -7 2 -13 14 -13 24 0 11 -4 17 -10 14 -13 -8 -13 1 0 26 12
21 46 26 53 7z m1488 -4020 c3 -5 9 -10 12 -10 22 0 46 -12 41 -20 -3 -5 -12
-7 -20 -4 -15 6 -18 -3 -8 -28 3 -9 11 -13 17 -9 6 3 7 1 3 -5 -7 -12 -36 -5
-36 9 0 5 -4 9 -10 9 -5 0 -7 -7 -3 -16 5 -14 3 -14 -18 -2 -13 7 -27 18 -31
23 -5 6 -8 5 -8 -3 0 -7 8 -15 18 -19 9 -3 25 -13 34 -20 9 -8 22 -12 29 -7 8
4 10 3 5 -5 -4 -6 2 -15 16 -21 20 -9 19 -10 -12 -7 -25 3 -45 -3 -70 -19 -19
-13 -31 -24 -27 -24 4 0 18 7 31 15 21 14 24 14 30 0 4 -11 1 -15 -11 -13 -9
2 -18 -4 -20 -12 -4 -13 -3 -13 6 0 10 14 12 13 15 -19 0 -8 8 -17 16 -19 12
-4 13 -2 3 9 -8 10 -9 20 -3 29 6 8 10 11 10 6 0 -5 9 -1 20 9 11 10 20 16 20
12 0 -3 3 -14 7 -24 5 -15 4 -16 -8 -7 -21 17 -45 -9 -24 -26 8 -6 19 -9 24
-5 6 3 19 2 28 -4 16 -8 14 -10 -10 -16 -32 -8 -34 -15 -7 -38 11 -9 20 -25
19 -34 0 -14 -2 -15 -6 -3 -4 8 -16 24 -28 35 -13 11 -25 27 -28 35 -3 9 -6 4
-6 -11 -1 -15 6 -29 14 -33 8 -3 15 -10 15 -15 0 -17 -42 -51 -75 -60 -23 -7
-25 -9 -8 -10 16 -1 20 -6 16 -22 -5 -18 -3 -20 16 -14 13 4 21 2 21 -5 0 -6
-4 -8 -10 -5 -5 3 -10 2 -10 -4 0 -17 17 -22 44 -11 24 9 25 8 14 -16 -8 -18
-14 -21 -20 -12 -5 8 -8 9 -8 2 0 -6 7 -17 15 -24 13 -10 15 -9 15 9 0 12 6
21 15 21 8 0 15 -4 15 -10 0 -5 9 -14 20 -20 17 -9 22 -7 30 12 7 18 9 19 9 5
2 -35 -43 -54 -77 -34 -7 5 -12 3 -12 -3 0 -7 -7 -5 -16 4 -18 19 -26 20 -40
6 -7 -7 -11 -6 -11 4 0 8 5 13 11 10 6 -3 -1 4 -16 16 -16 12 -28 26 -28 32 0
6 6 6 15 -2 8 -7 15 -8 15 -2 0 5 -10 17 -22 26 -13 9 -17 14 -10 11 6 -3 12
-1 12 4 0 6 -6 11 -14 11 -8 0 -16 6 -19 14 -4 10 5 16 31 21 40 7 75 32 66
46 -3 5 -10 9 -15 9 -6 0 -7 -4 -4 -10 3 -5 -1 -10 -9 -10 -9 0 -16 -6 -16
-12 -1 -7 -7 -2 -14 11 -10 18 -15 20 -19 10 -4 -11 -6 -10 -6 3 -1 9 -6 18
-13 20 -7 3 -8 10 -4 17 6 8 11 9 15 3 9 -15 26 -19 29 -7 1 6 -3 10 -9 10 -7
0 -15 10 -20 23 -10 28 4 29 31 2 27 -27 35 -25 13 4 -10 13 -21 22 -25 19 -5
-2 -8 3 -8 13 0 13 -3 14 -15 4 -9 -8 -13 -21 -9 -36 5 -18 2 -24 -10 -24 -14
0 -13 -6 8 -44 l24 -44 -24 2 c-26 1 -32 11 -11 19 7 3 6 6 -5 6 -9 1 -20 -3
-23 -9 -11 -18 -26 -11 -17 8 5 9 7 23 5 30 -3 6 0 12 5 12 6 0 15 14 21 31 9
27 8 30 -5 25 -9 -3 -21 -6 -27 -6 -8 0 -8 -3 1 -8 7 -5 10 -16 6 -25 -7 -19
-28 -24 -21 -4 2 6 -3 21 -12 31 -9 11 -11 16 -4 13 6 -4 22 -3 35 2 13 5 31
12 42 15 14 5 16 9 7 20 -8 9 -8 16 -2 20 6 4 9 12 7 19 -1 7 -1 9 1 5 11 -18
53 11 53 35 0 7 -5 4 -11 -5 -5 -10 -15 -18 -21 -18 -7 0 -7 4 1 14 9 11 7 15
-8 19 -15 3 -18 1 -14 -11 4 -8 2 -13 -3 -9 -6 3 -15 -3 -22 -14 -7 -11 -8
-19 -2 -19 5 0 10 -5 10 -11 0 -6 -7 -9 -15 -5 -10 3 -15 -1 -15 -14 0 -10 -5
-22 -12 -26 -8 -5 -9 -2 -5 9 4 12 1 17 -11 18 -14 0 -13 2 3 8 11 5 33 31 48
59 32 60 34 74 6 41 -21 -24 -21 -24 -15 -1 9 26 -2 29 -20 5 -7 -10 -15 -15
-19 -12 -10 11 26 41 42 35 9 -4 17 2 20 15 4 12 11 18 20 15 8 -3 11 -1 8 4
-3 6 -2 10 4 10 5 0 13 -4 16 -10 8 -13 25 -13 25 -1 0 5 -12 14 -27 20 l-28
11 30 -6 c16 -3 33 -10 36 -16z m-1198 -1415 c-5 -12 -3 -14 8 -7 21 13 36 13
36 0 -1 -33 5 -46 18 -46 9 0 18 -7 21 -15 4 -8 11 -12 16 -9 6 4 5 10 -3 15
-7 4 -10 11 -6 15 9 9 47 -25 47 -43 0 -7 -5 -13 -11 -13 -5 0 -7 5 -4 10 7
12 3 12 -20 4 -13 -5 -14 -8 -3 -15 9 -6 7 -9 -9 -9 -17 0 -21 5 -18 20 5 24
-20 28 -29 4 -3 -8 -10 -13 -15 -10 -5 3 -16 -5 -25 -18 -12 -18 -12 -26 -3
-29 9 -4 9 -8 -2 -15 -10 -7 -3 -11 25 -14 22 -3 42 -1 45 5 4 5 27 8 53 6 25
-2 46 -1 46 2 0 8 -38 19 -67 19 -13 0 -23 4 -23 9 0 16 34 18 56 4 19 -12 26
-11 60 12 28 19 39 22 45 13 4 -7 4 -17 -1 -24 -6 -6 -7 -14 -3 -18 4 -4 0 -4
-10 0 -14 5 -15 9 -6 20 8 10 8 14 0 14 -6 0 -11 -5 -11 -11 0 -5 -4 -7 -10
-4 -5 3 -10 1 -10 -4 0 -6 5 -11 11 -11 5 0 7 -5 4 -10 -4 -6 -12 -7 -18 -4
-8 4 -7 2 1 -7 11 -12 14 -12 21 0 6 9 11 10 15 2 4 -6 11 -9 16 -6 11 7 60
-15 60 -27 0 -5 -9 -7 -20 -3 -11 3 -32 8 -47 11 -21 3 -24 2 -13 -5 8 -6 32
-13 52 -16 21 -4 38 -11 38 -16 0 -5 20 -14 45 -21 25 -7 45 -18 45 -25 0 -7
-5 -13 -11 -13 -17 0 0 -19 32 -35 16 -9 29 -11 29 -5 0 5 -7 10 -15 10 -21 0
-19 20 3 20 21 1 52 23 52 39 0 6 5 11 11 11 6 0 8 -7 5 -16 -3 -9 -6 -27 -6
-40 0 -13 -4 -24 -10 -24 -5 0 -7 8 -3 18 5 14 4 15 -8 4 -12 -11 -11 -15 4
-26 9 -7 17 -18 17 -25 0 -15 -27 -14 -32 1 -2 6 -10 8 -17 4 -9 -6 -8 -11 4
-20 12 -9 14 -17 6 -36 -8 -22 -16 -13 -12 13 1 5 -4 5 -10 1 -6 -3 -15 0 -20
7 -7 11 -9 11 -9 1 0 -7 -5 -10 -11 -6 -7 4 -9 0 -5 -14 5 -15 1 -24 -14 -32
-27 -14 -41 -4 -34 25 7 28 -12 43 -21 15 -3 -11 -11 -20 -16 -20 -5 0 -9 -4
-9 -10 0 -5 6 -7 14 -4 7 3 16 -2 20 -11 4 -11 2 -15 -6 -11 -7 2 -32 10 -55
16 -33 10 -39 15 -30 25 7 7 15 11 18 9 3 -1 3 10 1 27 -3 19 0 29 8 29 8 0
11 9 8 25 -4 18 -1 25 10 25 10 0 13 -8 9 -27 -2 -16 -1 -37 3 -48 7 -15 9
-10 9 22 1 23 6 45 11 48 16 10 1 25 -17 18 -11 -4 -14 -3 -9 5 4 7 2 13 -3
13 -6 1 -16 2 -23 3 -14 1 -23 26 -9 26 5 0 13 -4 16 -10 3 -5 13 -10 22 -10
13 0 13 3 3 15 -7 8 -23 15 -35 15 -13 0 -38 12 -55 26 -17 15 -34 23 -38 20
-3 -4 0 -11 8 -16 12 -8 9 -10 -11 -10 -14 0 -31 6 -38 13 -10 8 -12 8 -7 0 3
-6 2 -14 -4 -18 -5 -3 -10 3 -10 14 0 12 -7 21 -15 21 -18 0 -20 -16 -2 -24 6
-3 -1 -4 -18 -1 -16 3 -43 8 -59 10 -17 3 -33 11 -38 18 -5 8 -8 6 -8 -8 0
-14 -3 -16 -8 -7 -5 7 -15 10 -24 7 -11 -5 -15 2 -15 29 0 32 2 34 20 24 16
-8 17 -12 6 -19 -7 -4 -11 -10 -8 -14 3 -3 19 7 35 22 l29 26 -29 -7 c-20 -5
-26 -4 -20 5 4 7 3 9 -2 6 -18 -10 -32 7 -37 46 -4 31 -2 37 12 33 50 -14 82
-16 98 -7 17 10 15 12 -17 15 -17 1 -27 36 -11 36 6 0 7 -7 4 -17z m92 -424
c17 -9 29 -21 27 -29 -3 -11 0 -11 12 -1 19 16 56 5 56 -17 0 -14 2 -14 9 -3
5 7 14 12 21 9 10 -3 9 -8 -3 -19 -14 -14 -11 -15 34 -11 41 4 53 1 64 -14 13
-16 14 -16 9 -2 -6 16 -3 17 42 3 27 -8 52 -15 56 -15 4 0 5 -8 1 -17 -6 -17
-5 -17 14 0 27 24 37 21 12 -4 -14 -14 -24 -17 -33 -10 -9 7 -16 5 -26 -8 -7
-11 -19 -17 -27 -14 -17 7 -17 23 1 23 7 0 19 7 26 15 10 13 9 15 -9 15 -11 0
-21 -6 -21 -12 0 -9 -4 -8 -11 2 -9 13 -10 12 -5 -2 5 -17 -5 -23 -29 -18 -5
1 -6 -2 -2 -7 5 -4 10 -6 12 -3 1 3 11 -3 22 -12 19 -17 68 -15 57 3 -3 5 0 9
6 9 6 0 15 -11 20 -25 11 -29 20 -34 13 -6 -7 29 27 36 51 10 15 -16 17 -20 5
-16 -10 3 -22 -5 -32 -23 -15 -24 -15 -29 -2 -40 12 -10 16 -9 21 3 3 9 12 13
21 10 11 -4 14 -2 9 6 -5 7 -16 9 -28 5 -14 -4 -19 -2 -16 7 6 18 54 21 70 5
7 -7 18 -11 24 -9 6 2 17 -3 23 -11 10 -12 9 -15 -11 -14 -13 1 -30 6 -38 12
-13 10 -13 9 -1 -7 13 -17 12 -18 -12 -12 -33 9 -36 -2 -4 -14 14 -5 25 -4 29
3 4 6 7 -1 6 -16 -3 -33 -2 -32 -22 -12 -9 8 -16 11 -16 5 0 -7 -8 -7 -24 -1
-19 7 -29 4 -47 -13 -20 -18 -22 -19 -16 -3 5 13 3 17 -7 13 -10 -4 -12 0 -9
14 3 10 0 19 -6 19 -6 0 -12 -7 -12 -15 -1 -8 -2 -21 -3 -27 -1 -7 4 -15 12
-18 10 -4 9 -10 -3 -25 -8 -11 -15 -15 -14 -10 3 23 -2 36 -11 30 -5 -3 -10
-1 -10 4 0 6 4 11 8 11 4 0 8 9 8 20 0 11 -4 20 -8 20 -4 0 -8 -6 -8 -14 0 -7
-8 -20 -17 -27 -10 -8 -14 -9 -10 -2 4 6 3 14 -3 18 -5 3 -10 1 -10 -5 0 -6
-4 -9 -9 -6 -5 4 -11 1 -13 -5 -2 -7 -9 -5 -17 5 -12 14 -11 16 5 10 18 -7 18
-6 -1 17 -11 13 -13 18 -4 11 9 -6 20 -8 24 -4 5 4 5 1 0 -7 -5 -9 -3 -12 6
-9 8 3 13 13 11 22 -2 10 3 25 10 34 9 10 9 13 1 9 -7 -5 -16 1 -23 13 -6 11
-18 20 -26 20 -8 0 -12 5 -9 10 3 6 1 10 -5 10 -6 0 -10 -8 -9 -17 3 -32 -1
-44 -11 -38 -6 4 -8 10 -5 15 3 4 -3 6 -14 3 -16 -4 -18 1 -18 33 1 22 -4 39
-11 42 -9 3 -11 -4 -6 -24 6 -22 4 -26 -9 -21 -9 3 -18 2 -21 -4 -2 -5 -3 -4
-1 3 1 7 9 12 16 10 11 -3 11 -1 2 8 -6 7 -16 9 -22 6 -15 -9 -14 -46 1 -46 6
0 3 -9 -7 -20 -23 -26 -11 -26 14 -1 11 11 17 22 14 25 -4 3 -2 6 4 6 6 0 13
-7 17 -15 3 -9 0 -15 -10 -15 -8 0 -19 -11 -24 -25 -5 -14 -14 -25 -20 -25 -6
0 -8 -5 -5 -11 4 -6 13 -8 21 -5 8 3 14 0 14 -5 0 -6 9 -9 20 -6 11 3 18 1 14
-4 -3 -5 3 -9 13 -9 18 -1 65 -30 47 -30 -6 0 -15 5 -22 12 -7 7 -12 9 -12 6
0 -4 -26 4 -57 16 -32 13 -57 29 -55 35 1 7 -2 10 -7 7 -5 -3 -20 -2 -33 3
-22 9 -22 10 14 25 34 14 37 20 36 51 -1 29 -4 34 -20 29 -10 -3 -18 -1 -18 5
0 6 5 11 12 11 6 0 9 2 6 5 -8 8 -58 -17 -52 -26 7 -11 -30 -29 -61 -29 -17 0
-24 -4 -19 -12 5 -7 3 -8 -6 -3 -10 6 -12 4 -6 -11 4 -10 4 -15 0 -11 -4 4
-13 -1 -21 -11 -8 -9 -12 -11 -8 -4 5 11 -6 17 -27 13 -5 0 -8 6 -8 14 0 8 4
15 10 15 5 0 7 8 4 18 -5 14 -4 14 4 2 6 -8 8 -18 6 -22 -7 -11 4 -10 27 2 23
13 24 26 3 34 -12 5 -15 2 -10 -9 3 -10 2 -13 -5 -10 -6 4 -8 13 -5 20 3 8 -3
16 -12 19 -10 3 -6 4 7 3 13 -1 26 4 29 12 3 10 0 12 -12 8 -9 -4 -23 -4 -31
-1 -12 5 -12 8 2 22 19 19 63 26 63 10 0 -7 5 -6 15 2 8 6 20 8 27 4 7 -4 10
-4 6 1 -4 4 -1 13 8 19 13 10 13 12 -5 12 -12 0 -21 -5 -21 -11 0 -5 -7 -2
-14 8 -12 15 -18 17 -36 7 -11 -6 -29 -9 -38 -7 -15 3 -14 5 3 11 34 13 84 40
81 43 -2 2 -16 -1 -31 -7 -23 -9 -26 -8 -21 6 3 8 6 20 6 24 0 10 70 -9 115
-31z m399 -794 c6 -17 36 -21 36 -5 0 6 5 10 10 10 6 0 8 -10 4 -24 -3 -13 -1
-27 4 -30 6 -4 8 2 5 14 -4 16 -2 19 11 14 9 -3 16 -16 16 -28 0 -17 2 -18 10
-6 9 13 12 13 25 -4 7 -10 18 -15 23 -12 12 7 24 -22 15 -36 -3 -7 -1 -8 5 -4
7 4 12 15 12 24 0 15 2 15 10 2 7 -11 4 -20 -14 -36 -19 -17 -22 -25 -13 -35
10 -12 9 -12 -3 -1 -8 7 -15 20 -15 29 0 9 -8 17 -17 19 -10 1 -30 12 -45 24
-24 19 -28 20 -31 6 -3 -14 -7 -12 -23 8 -12 15 -26 23 -34 19 -17 -6 -21 -43
-5 -43 6 0 10 -5 10 -11 0 -6 -9 -9 -19 -6 -15 3 -18 1 -14 -11 4 -10 2 -13
-5 -8 -7 4 -12 18 -12 32 0 22 -3 23 -20 14 -11 -6 -20 -16 -19 -23 0 -9 2 -9
6 1 9 22 25 13 21 -12 -3 -14 -1 -31 3 -38 7 -10 9 -10 9 0 0 18 20 15 27 -5
8 -23 34 -53 45 -53 5 0 0 13 -11 29 -25 35 -25 40 -6 77 l15 29 0 -32 c0 -17
-6 -34 -12 -36 -10 -4 -9 -8 2 -16 8 -6 20 -11 25 -11 6 0 4 4 -3 8 -8 6 -10
16 -4 31 8 22 8 22 21 -6 12 -25 14 -26 20 -9 7 18 9 17 34 -10 15 -16 27 -32
27 -37 0 -4 4 -6 9 -2 5 3 12 1 16 -5 15 -24 -23 -7 -48 21 -15 17 -27 28 -27
24 0 -14 58 -73 66 -67 4 4 4 1 0 -5 -4 -7 -14 -13 -22 -13 -8 0 -14 -10 -14
-22 0 -19 2 -20 10 -8 8 12 10 11 10 -6 0 -26 -49 -52 -61 -32 -4 6 -5 17 -1
23 4 5 8 2 10 -9 3 -14 6 -15 12 -6 8 13 -28 63 -40 55 -4 -3 -13 2 -20 10
-16 19 -34 19 -27 1 4 -11 1 -13 -11 -9 -13 4 -12 2 3 -10 20 -16 16 -29 -10
-33 -7 -1 -11 4 -9 10 3 7 -2 19 -11 26 -15 12 -16 11 -13 -5 2 -12 -4 -21
-14 -23 -11 -2 -18 3 -18 12 0 10 -9 16 -21 16 -18 0 -19 -2 -9 -15 8 -9 8
-15 2 -15 -14 0 -23 29 -17 58 2 13 0 20 -6 17 -5 -4 -9 -18 -10 -33 0 -24 -1
-25 -9 -7 -5 13 -3 26 5 35 7 8 13 23 13 33 1 9 2 28 3 42 2 31 4 31 35 -2
l25 -28 -22 43 c-11 23 -19 49 -15 57 3 8 0 15 -6 15 -6 0 -8 3 -5 7 4 3 16
-2 27 -12 12 -11 20 -13 20 -6 0 7 5 9 10 6 6 -3 10 -2 10 4 0 5 -8 15 -17 20
-16 9 -16 10 4 11 12 0 23 -6 26 -12 2 -7 2 -2 0 11 -6 34 29 56 41 26z"/>
<path d="M10440 7200 c-8 -16 -8 -20 4 -20 9 0 14 6 12 13 -1 6 -1 8 2 3 2 -4
8 -2 13 5 6 9 9 10 9 2 0 -6 -4 -15 -10 -18 -5 -3 -10 -15 -10 -25 0 -10 -8
-24 -17 -29 -11 -6 -13 -11 -5 -11 8 0 5 -10 -9 -30 -22 -29 -22 -30 -3 -52
l19 -23 -26 23 c-27 23 -49 29 -49 11 0 -5 5 -7 12 -3 7 5 8 3 3 -5 -4 -8 -17
-10 -34 -6 -26 6 -26 6 -4 -9 20 -15 22 -56 3 -56 -5 0 -6 -9 -3 -20 3 -11 1
-20 -5 -20 -5 0 -13 -7 -16 -16 -3 -8 -2 -12 4 -9 6 3 10 2 10 -4 0 -5 -8 -14
-17 -20 -16 -9 -16 -10 4 -8 12 0 19 5 16 10 -3 5 4 6 15 3 12 -4 23 -2 28 5
5 9 2 10 -9 6 -8 -3 -20 0 -26 7 -16 19 -3 26 26 15 19 -7 24 -6 20 3 -2 7
-12 12 -21 11 -12 -1 -15 4 -11 15 4 10 10 25 12 35 8 27 21 20 16 -10 -2 -18
0 -22 4 -13 9 16 50 20 71 7 8 -5 12 -2 13 10 1 10 2 23 4 28 1 6 3 16 3 23 1
8 7 10 15 6 6 -4 4 2 -5 13 -20 22 -24 38 -6 27 8 -5 9 -2 5 10 -4 9 -3 15 2
12 4 -3 16 3 25 13 11 12 13 21 7 25 -6 4 -8 13 -4 21 3 9 -1 15 -8 15 -11 0
-11 3 1 10 11 7 11 10 2 10 -8 0 -10 5 -6 12 5 8 2 9 -9 5 -9 -3 -19 -2 -22 3
-10 17 -34 11 -45 -10z"/>
<path d="M10562 5855 c2 -14 -4 -21 -24 -25 -22 -4 -25 -8 -18 -20 5 -8 10
-19 10 -25 0 -5 -4 -4 -9 4 -6 9 -14 10 -27 3 -11 -6 -32 -8 -47 -5 -17 4 -27
1 -27 -7 0 -7 -8 -10 -20 -7 -11 3 -31 -4 -46 -15 -16 -13 -29 -17 -32 -11 -4
6 -14 4 -24 -7 -15 -14 -15 -17 -3 -17 8 0 15 4 15 8 0 5 7 6 16 2 10 -4 22 1
30 12 12 16 14 17 20 2 3 -10 12 -17 20 -17 18 0 18 10 -1 24 -12 9 -10 11 15
12 17 1 27 -3 23 -9 -3 -6 -1 -7 6 -3 18 12 100 12 94 1 -2 -5 2 -2 10 7 8 10
17 15 20 11 4 -3 7 -1 7 5 0 6 -4 14 -10 17 -5 3 -10 11 -10 16 0 6 5 7 10 4
6 -3 10 -2 10 4 0 7 8 7 25 -1 14 -6 25 -15 25 -20 0 -4 23 -8 51 -8 45 0 50
2 39 15 -10 12 -9 15 6 15 17 0 17 1 1 18 -15 15 -19 15 -27 2 -5 -8 -12 -11
-16 -7 -4 3 -1 13 6 22 15 18 11 19 -25 5 -17 -7 -24 -7 -20 0 3 6 1 10 -4 10
-6 0 -11 -5 -11 -11 0 -5 -4 -8 -9 -4 -5 3 -13 0 -17 -6 -5 -9 -11 -6 -21 7
-14 19 -14 19 -11 -1z"/>
<path d="M11523 3557 c-3 -4 -15 -12 -27 -17 -20 -8 -20 -9 4 -10 23 -1 24 -2
8 -14 -10 -7 -18 -17 -18 -21 0 -4 -7 -13 -15 -19 -12 -10 -12 -13 0 -30 15
-19 15 -19 15 2 0 13 6 22 15 22 8 0 15 -4 15 -10 0 -5 -4 -10 -8 -10 -4 0 -8
-8 -9 -18 -1 -15 4 -18 25 -15 25 4 26 3 10 -10 -10 -8 -18 -20 -18 -28 1 -11
3 -10 13 2 7 9 22 15 33 13 16 -3 23 3 26 20 3 13 1 32 -5 41 -6 12 -5 20 3
25 7 4 10 12 6 18 -3 6 3 14 15 17 13 5 25 2 29 -6 11 -16 39 -20 59 -9 14 8
13 9 -3 10 -27 0 -86 22 -86 32 0 4 8 8 17 8 14 0 14 3 5 12 -10 10 -15 10
-22 -2 -5 -8 -10 -10 -10 -3 0 13 -68 14 -77 0z"/>
<path d="M11754 2572 c10 -16 -15 -27 -26 -11 -7 10 -8 4 -4 -18 3 -18 1 -33
-4 -33 -5 0 -7 -6 -4 -13 3 -9 16 -12 36 -9 22 3 29 1 26 -8 -2 -7 -12 -14
-21 -16 -10 -1 -14 2 -10 9 4 6 0 8 -10 4 -10 -4 -24 -10 -32 -13 -8 -4 -15
-1 -15 6 0 10 -3 10 -15 0 -12 -10 -15 -10 -15 3 0 10 -6 13 -20 10 -11 -3
-20 -10 -20 -15 0 -6 7 -8 15 -4 8 3 14 0 12 -7 -1 -7 5 -12 13 -12 8 0 21 -4
29 -9 8 -5 16 -3 22 5 7 11 9 10 9 -3 0 -10 5 -18 10 -18 6 0 10 5 10 10 0 6
4 10 9 10 6 0 9 -8 8 -18 -1 -17 -6 -18 -47 -9 -25 5 -53 10 -62 10 -10 1 -18
6 -18 12 0 5 -4 4 -9 -4 -6 -9 -14 -10 -27 -3 -39 20 -74 23 -74 7 0 -8 -8
-15 -17 -15 -15 0 -16 2 -3 10 8 5 10 10 4 10 -20 0 -36 -28 -29 -50 5 -15 10
-18 19 -11 9 7 16 7 24 -1 8 -8 12 -9 12 -1 0 13 -28 25 -41 17 -5 -3 -9 0 -9
7 0 6 8 9 20 6 11 -3 20 -1 20 4 0 5 12 9 28 8 19 0 22 -2 11 -7 -12 -5 -14
-13 -8 -29 11 -29 23 -30 14 -1 -6 17 -4 20 10 15 9 -4 24 -7 33 -8 10 -1 8
-4 -7 -8 l-23 -6 28 -15 c16 -8 37 -21 47 -29 15 -13 17 -12 18 5 0 16 1 16 9
-3 10 -25 29 -30 47 -12 8 8 16 8 30 0 13 -8 14 -10 3 -11 -9 0 -2 -9 15 -20
28 -19 31 -19 43 -3 11 16 13 16 29 0 11 -11 13 -17 5 -17 -7 0 -12 5 -12 11
0 7 -9 0 -20 -14 -24 -30 -25 -41 -5 -33 9 3 18 -1 21 -9 4 -8 10 -12 15 -9 5
3 2 12 -6 20 -16 17 -21 39 -5 29 5 -3 20 -3 33 0 18 5 23 12 21 31 -1 17 3
24 14 25 11 0 13 2 4 6 -7 3 -19 -1 -27 -7 -12 -10 -16 -8 -24 11 -9 26 -4 49
10 49 5 0 9 -7 9 -15 0 -9 10 -15 26 -15 14 0 23 4 19 10 -4 6 -11 8 -16 5 -5
-4 -9 1 -9 9 0 9 -7 16 -16 16 -8 0 -13 4 -9 9 3 5 -4 12 -14 16 -13 4 -18 11
-14 22 5 12 2 15 -10 10 -18 -7 -22 9 -8 32 7 11 11 10 20 -5 10 -18 10 -18
11 1 0 15 3 16 12 7 17 -17 28 -15 28 4 0 10 6 14 15 10 20 -7 19 1 -1 22 -22
21 -47 25 -40 6 4 -10 2 -12 -5 -8 -7 4 -21 8 -33 8 -11 1 -20 7 -19 13 1 6
-5 14 -13 17 -12 4 -14 1 -9 -14 4 -11 2 -20 -3 -20 -15 0 -34 28 -28 39 4 5
1 13 -5 17 -7 4 -9 3 -5 -4z"/>
<path d="M10410 1770 c0 -20 2 -25 11 -22 5 1 9 -2 9 -8 0 -5 9 -10 19 -10 11
0 26 -7 34 -15 8 -8 17 -12 20 -9 3 3 22 -2 42 -10 20 -9 42 -13 49 -9 6 3 8
2 3 -2 -7 -8 113 -65 137 -65 7 0 31 -9 54 -20 47 -23 66 -25 56 -7 -4 6 4 2
17 -10 13 -11 44 -27 69 -34 25 -7 49 -16 54 -21 6 -4 19 -8 31 -8 12 0 26 -5
32 -11 7 -7 22 -13 35 -15 90 -13 107 -18 102 -25 -3 -5 2 -6 10 -3 9 3 16 1
16 -5 0 -16 27 -14 33 3 6 14 -59 40 -75 30 -4 -3 -8 -1 -8 5 0 6 -15 15 -32
20 -55 17 -198 67 -303 106 -55 20 -147 54 -205 75 -58 21 -129 47 -157 59
-29 11 -53 16 -53 11z"/>
<path d="M11416 866 c6 -15 18 -20 37 -17 4 1 7 -6 5 -15 -2 -9 3 -19 10 -21
7 -3 10 1 6 10 -4 12 0 14 15 10 12 -3 21 -11 21 -18 0 -7 7 -18 15 -25 11 -9
12 -17 5 -30 -13 -25 -12 -39 1 -20 9 12 10 11 6 -7 -4 -19 -2 -21 17 -13 20
7 22 5 20 -20 -1 -17 4 -31 12 -34 16 -6 18 3 5 23 -7 11 -3 18 16 28 30 16
36 16 28 3 -3 -5 -2 -10 3 -10 6 0 9 -8 8 -17 0 -11 7 -18 20 -19 12 -1 27 -5
34 -9 10 -6 11 -4 5 11 -5 10 -8 34 -7 52 1 17 -2 32 -7 32 -5 0 -7 -10 -3
-22 4 -16 2 -19 -8 -13 -9 5 -11 4 -6 -3 4 -8 2 -10 -7 -6 -8 3 -14 17 -13 32
0 15 -2 28 -7 29 -4 2 -21 10 -37 18 -17 9 -30 12 -30 8 0 -5 -4 -2 -9 5 -4 7
-14 15 -22 16 -8 1 -27 8 -44 16 -64 27 -80 34 -87 38 -4 1 -5 -4 -2 -12z"/>
<path d="M11519 435 c-7 -2 -4 -45 2 -45 16 0 9 -18 -8 -23 -14 -4 -12 -5 5
-6 12 0 23 4 23 9 2 11 5 25 9 38 1 4 2 10 1 15 -2 12 7 8 35 -18 l28 -26 -22
-15 c-12 -8 -22 -21 -22 -29 0 -9 -6 -12 -15 -9 -8 4 -15 2 -15 -4 0 -6 6 -12
13 -15 10 -4 10 -7 0 -18 -11 -11 -13 -10 -13 2 0 8 -9 15 -21 16 -19 2 -20 0
-7 -15 8 -9 18 -24 22 -32 4 -8 1 -7 -8 4 -18 22 -39 12 -30 -16 5 -16 3 -20
-9 -15 -10 4 -13 0 -10 -13 3 -10 0 -21 -6 -24 -7 -5 -8 -1 -4 10 5 12 3 15
-6 9 -10 -6 -11 -3 -2 12 6 11 7 24 3 28 -4 5 -2 5 5 1 13 -7 31 40 19 51 -3
4 -6 -1 -6 -10 0 -14 -4 -15 -25 -5 -28 13 -34 30 -8 26 10 -2 21 9 30 30 8
19 9 31 3 27 -5 -3 -10 -13 -10 -22 0 -10 -6 -13 -16 -9 -8 3 -12 2 -9 -4 9
-14 -9 -12 -23 2 -9 9 -12 9 -12 0 0 -7 5 -12 11 -12 5 0 8 -4 5 -9 -9 -14
-46 -1 -46 16 0 8 4 11 10 8 6 -4 7 1 3 11 -5 13 -3 16 10 11 9 -3 17 -2 17 3
0 5 -13 8 -28 8 -25 -1 -28 -4 -24 -25 3 -16 0 -23 -8 -21 -8 2 -19 -7 -25
-20 -7 -13 -16 -23 -21 -22 -16 2 -16 -30 -1 -36 9 -3 13 -14 11 -27 -3 -15
-1 -13 7 6 6 15 17 27 24 27 15 0 28 27 19 42 -3 5 -11 2 -18 -7 -11 -15 -12
-15 -12 2 0 23 35 28 43 7 5 -13 7 -13 14 -2 7 10 11 7 15 -9 4 -13 10 -23 14
-23 4 0 8 -11 8 -25 0 -14 -4 -25 -9 -25 -5 0 -9 5 -9 10 0 6 -5 10 -11 10 -8
0 -8 -4 1 -15 6 -8 9 -18 6 -23 -9 -15 75 -25 88 -11 8 9 8 10 -1 5 -19 -10
-16 1 5 22 20 20 44 22 50 3 3 -9 -2 -11 -18 -6 -19 6 -21 4 -15 -17 10 -30 8
-29 41 -31 20 -2 29 -8 28 -19 -1 -14 2 -15 17 -5 11 7 19 15 19 20 0 4 4 5
10 2 5 -3 7 0 4 8 -7 19 16 34 26 17 6 -9 12 -9 27 1 17 10 23 9 43 -11 18
-18 24 -20 31 -9 13 21 11 39 -6 39 -9 0 -13 -7 -9 -17 2 -10 -1 -8 -7 4 -7
13 -16 23 -21 23 -4 0 -8 8 -9 18 0 13 -3 11 -10 -6 -5 -14 -13 -20 -20 -16
-8 4 -9 3 -5 -4 4 -7 2 -12 -3 -12 -6 0 -11 5 -11 11 0 8 -5 7 -15 -1 -24 -20
-40 3 -40 54 0 31 3 42 12 39 7 -3 13 -14 13 -24 0 -10 5 -19 11 -19 6 0 8 7
5 16 -3 9 -6 22 -6 30 0 9 -4 12 -10 9 -5 -3 -10 -1 -10 5 0 19 34 6 45 -16 8
-15 13 -18 21 -10 12 13 7 39 -6 31 -13 -8 -40 36 -40 63 0 19 -4 22 -20 17
-11 -3 -20 -2 -20 3 0 13 -73 34 -91 27z"/>
</g>
</svg>
